<?xml version="1.0" encoding="utf-8"?>
<svg version="1.1" id="Layer_1" xmlns="http://www.w3.org/2000/svg" xmlns:xlink="http://www.w3.org/1999/xlink" x="0px" y="0px"
	 viewBox="0 0 216.83 169.51" style="enable-background:new 0 0 216.83 169.51;" xml:space="preserve">
<style type="text/css">
	.st0{fill:#231F20;}
</style>
<path class="st0" d="M137.61,148.74c0.39,0.39,0.38,1.03-0.01,1.41c-0.39,0.39-1.03,0.38-1.41-0.01c-0.39-0.39-0.38-1.03,0.01-1.41
	C136.59,148.34,137.23,148.35,137.61,148.74z M128.44,154.29c-0.42,0.42-0.43,1.09-0.01,1.52c0.42,0.42,1.09,0.43,1.52,0.01
	c0.42-0.42,0.43-1.09,0.01-1.52C129.54,153.88,128.86,153.88,128.44,154.29z M120.22,158.85c-0.45,0.44-0.46,1.17-0.02,1.62
	c0.44,0.45,1.17,0.46,1.62,0.02c0.45-0.44,0.46-1.17,0.02-1.62C121.4,158.41,120.67,158.41,120.22,158.85z M111.64,162.4
	c-0.48,0.47-0.49,1.25-0.02,1.73c0.47,0.48,1.25,0.49,1.73,0.02c0.48-0.47,0.49-1.25,0.02-1.73
	C112.89,161.93,112.12,161.93,111.64,162.4z M102.78,164.95c-0.51,0.5-0.52,1.32-0.02,1.84c0.5,0.51,1.32,0.52,1.84,0.02
	c0.51-0.5,0.52-1.32,0.02-1.84C104.11,164.45,103.29,164.44,102.78,164.95z M93.73,166.49c-0.54,0.53-0.55,1.4-0.02,1.94
	c0.53,0.54,1.4,0.55,1.94,0.02c0.54-0.53,0.55-1.4,0.02-1.94C95.14,165.97,94.27,165.96,93.73,166.49z M84.59,167.03
	c-0.57,0.56-0.58,1.48-0.02,2.05c0.56,0.57,1.48,0.58,2.05,0.02c0.57-0.56,0.58-1.48,0.02-2.05
	C86.08,166.48,85.16,166.47,84.59,167.03z M75.44,166.57c-0.6,0.59-0.61,1.55-0.02,2.15c0.59,0.6,1.55,0.61,2.15,0.02
	c0.6-0.59,0.61-1.55,0.02-2.15C77.01,165.99,76.04,165.98,75.44,166.57z M66.38,165.1c-0.63,0.62-0.64,1.63-0.02,2.26
	c0.62,0.63,1.63,0.64,2.26,0.02c0.63-0.62,0.64-1.63,0.02-2.26C68.02,164.5,67.01,164.49,66.38,165.1z M57.49,162.64
	c-0.66,0.65-0.67,1.71-0.02,2.37c0.65,0.66,1.71,0.67,2.37,0.02c0.66-0.65,0.67-1.71,0.02-2.37C59.21,162,58.15,161.99,57.49,162.64
	z M48.86,159.18c-0.69,0.68-0.7,1.78-0.02,2.47c0.68,0.69,1.78,0.7,2.47,0.02c0.69-0.68,0.7-1.78,0.02-2.47
	C50.65,158.51,49.55,158.5,48.86,159.18z M40.58,154.72c-0.72,0.7-0.73,1.86-0.03,2.58c0.7,0.72,1.86,0.73,2.58,0.03
	c0.72-0.7,0.73-1.86,0.03-2.58C42.45,154.02,41.3,154.01,40.58,154.72z M32.75,149.26c-0.75,0.73-0.76,1.93-0.03,2.68
	c0.73,0.75,1.93,0.76,2.68,0.03c0.75-0.73,0.76-1.93,0.03-2.68C34.7,148.53,33.5,148.52,32.75,149.26z M25.45,142.8
	c-0.78,0.76-0.79,2.01-0.03,2.79c0.76,0.78,2.01,0.79,2.79,0.03c0.78-0.76,0.79-2.01,0.03-2.79
	C27.47,142.05,26.22,142.04,25.45,142.8z M9.13,113.03c0.58,0.03,1.16-0.17,1.61-0.6c0.33-0.32,0.52-0.72,0.6-1.14
	c0.58,0.07,1.18-0.11,1.62-0.55c0.34-0.33,0.52-0.76,0.57-1.2c0.58,0.12,1.2-0.04,1.65-0.49c0.36-0.35,0.54-0.82,0.54-1.28
	c0.57,0.18,1.22,0.05,1.68-0.4c0.38-0.38,0.54-0.9,0.47-1.4c0.57,0.28,1.27,0.19,1.75-0.28c0.44-0.44,0.55-1.08,0.34-1.62
	c0.54,0.48,1.36,0.46,1.88-0.06c0.53-0.54,0.53-1.41-0.01-1.94c-0.54-0.53-1.41-0.53-1.94,0.01c-0.38,0.39-0.49,0.95-0.31,1.43
	c-0.6-0.56-1.53-0.55-2.11,0.04c-0.33,0.33-0.47,0.77-0.43,1.2c-0.64-0.35-1.45-0.27-1.99,0.27c-0.3,0.3-0.45,0.68-0.48,1.06
	c-0.65-0.25-1.42-0.12-1.94,0.4c-0.28,0.28-0.45,0.62-0.51,0.98c-0.66-0.18-1.39-0.03-1.92,0.49c-0.26,0.26-0.43,0.57-0.51,0.9
	c-0.67-0.14-1.39,0.05-1.91,0.57c-0.25,0.24-0.42,0.53-0.52,0.84c-0.67-0.09-1.38,0.11-1.9,0.63c-0.9,0.88-0.91,2.32-0.03,3.21
	s2.32,0.91,3.21,0.03C8.83,113.81,9.03,113.43,9.13,113.03z M6.51,104.8c0.68,0.12,1.4-0.07,1.93-0.59c0.19-0.19,0.33-0.4,0.44-0.62
	c0.66,0.16,1.38-0.01,1.9-0.53c0.21-0.2,0.36-0.44,0.46-0.7c0.64,0.2,1.37,0.06,1.89-0.45c0.23-0.22,0.37-0.49,0.46-0.78
	c0.63,0.26,1.37,0.14,1.88-0.37c0.25-0.25,0.41-0.56,0.48-0.89c0.6,0.33,1.36,0.25,1.87-0.26c0.29-0.29,0.44-0.67,0.45-1.05
	c0.56,0.45,1.38,0.42,1.89-0.1c0.39-0.39,0.49-0.95,0.33-1.44c0.06,0.11,0.13,0.21,0.22,0.31c0.5,0.49,1.3,0.48,1.79-0.02
	c0.49-0.5,0.48-1.3-0.02-1.79c-0.5-0.49-1.3-0.48-1.79,0.02c-0.34,0.35-0.43,0.84-0.3,1.27c-0.07-0.13-0.15-0.25-0.25-0.35
	c-0.56-0.55-1.45-0.55-2.01,0.01c-0.24,0.24-0.37,0.55-0.4,0.87c-0.62-0.55-1.57-0.54-2.16,0.06c-0.2,0.2-0.33,0.44-0.4,0.7
	c-0.67-0.43-1.57-0.36-2.16,0.22c-0.17,0.17-0.3,0.37-0.39,0.59c-0.7-0.36-1.58-0.25-2.17,0.34c-0.15,0.15-0.26,0.31-0.35,0.49
	c-0.73-0.3-1.61-0.16-2.21,0.43c-0.13,0.13-0.23,0.27-0.31,0.41c-0.76-0.26-1.63-0.09-2.24,0.51c-0.11,0.11-0.2,0.22-0.28,0.34
	c-0.78-0.22-1.65-0.03-2.27,0.58c-0.93,0.91-0.94,2.39-0.03,3.32s2.39,0.94,3.32,0.03C6.27,105.19,6.4,105,6.51,104.8z M4.67,96.42
	c0.03-0.03,0.06-0.06,0.09-0.1c0.79,0.27,1.69,0.1,2.33-0.52c0.05-0.05,0.1-0.11,0.15-0.17c0.75,0.3,1.65,0.15,2.26-0.45
	c0.08-0.08,0.15-0.16,0.21-0.25c0.72,0.34,1.6,0.22,2.2-0.37c0.11-0.11,0.19-0.22,0.27-0.34c0.68,0.39,1.56,0.3,2.14-0.28
	c0.14-0.14,0.24-0.29,0.32-0.45c0.64,0.46,1.52,0.41,2.09-0.17c0.17-0.17,0.29-0.37,0.37-0.59c0.58,0.54,1.48,0.53,2.04-0.03
	c0.23-0.23,0.36-0.51,0.4-0.8c0.05,0.07,0.1,0.14,0.17,0.2c0.51,0.5,1.34,0.5,1.84-0.02c0.5-0.51,0.5-1.34-0.02-1.84
	c-0.51-0.5-1.34-0.5-1.84,0.02c-0.18,0.19-0.3,0.42-0.35,0.66c-0.06-0.1-0.13-0.19-0.22-0.28c-0.57-0.57-1.5-0.56-2.07,0.01
	c-0.13,0.13-0.22,0.28-0.29,0.44c-0.02-0.02-0.03-0.04-0.04-0.05c-0.63-0.63-1.66-0.63-2.3,0c-0.09,0.09-0.16,0.19-0.23,0.3
	c-0.7-0.59-1.74-0.57-2.4,0.09c-0.06,0.06-0.1,0.12-0.15,0.18c-0.76-0.53-1.8-0.47-2.48,0.2c-0.03,0.03-0.05,0.06-0.07,0.09
	c-0.8-0.49-1.86-0.39-2.56,0.3C5.74,91.76,4.72,91.87,4,92.5c-0.89-0.41-1.98-0.26-2.72,0.46c-0.95,0.94-0.97,2.47-0.03,3.42
	C2.18,97.35,3.72,97.36,4.67,96.42z M3.91,87.68c0.8,0.44,1.8,0.38,2.54-0.18c0.79,0.49,1.81,0.43,2.54-0.19
	c0.77,0.54,1.84,0.48,2.54-0.2c0.72,0.59,1.78,0.55,2.45-0.12c0.03-0.03,0.05-0.06,0.08-0.09c0.65,0.64,1.71,0.64,2.36-0.01
	c0.07-0.07,0.13-0.15,0.19-0.23c0.04,0.05,0.07,0.09,0.11,0.14c0.59,0.59,1.55,0.58,2.13-0.01c0.12-0.13,0.22-0.27,0.29-0.42
	c0.06,0.12,0.14,0.24,0.24,0.34c0.53,0.52,1.38,0.51,1.9-0.02c0.52-0.53,0.51-1.38-0.02-1.9c-0.53-0.52-1.38-0.51-1.9,0.02
	c-0.09,0.09-0.16,0.19-0.22,0.3c-0.07-0.16-0.17-0.32-0.31-0.45c-0.59-0.59-1.55-0.58-2.13,0.01c-0.03,0.03-0.06,0.07-0.09,0.11
	c-0.06-0.09-0.13-0.17-0.2-0.25c-0.65-0.64-1.68-0.65-2.34-0.02c-0.03-0.04-0.05-0.07-0.09-0.11c-0.67-0.67-1.71-0.71-2.44-0.14
	c-0.69-0.69-1.76-0.77-2.54-0.23c-0.72-0.62-1.74-0.7-2.54-0.22c-0.73-0.57-1.73-0.65-2.53-0.21c-0.97-0.69-2.31-0.61-3.19,0.25
	c-0.98,0.97-1,2.55-0.03,3.53C1.58,88.25,2.93,88.36,3.91,87.68z M3.99,78.94c0.72,0.61,1.72,0.72,2.55,0.34
	c0.71,0.65,1.73,0.77,2.55,0.34c0.01,0.01,0.01,0.01,0.02,0.02c0.69,0.69,1.75,0.8,2.55,0.3c0.03,0.04,0.06,0.08,0.1,0.12
	c0.67,0.67,1.71,0.73,2.45,0.19c0.06,0.08,0.12,0.16,0.19,0.24c0.65,0.65,1.7,0.67,2.37,0.05c0.07,0.13,0.16,0.26,0.27,0.37
	c0.61,0.6,1.59,0.6,2.2-0.01c0.04-0.04,0.07-0.09,0.1-0.13c0.07,0.21,0.18,0.4,0.34,0.56c0.55,0.54,1.42,0.53,1.96-0.02
	c0.16-0.16,0.26-0.36,0.33-0.56c-0.04,0.36,0.08,0.73,0.36,1c0.48,0.47,1.25,0.46,1.72-0.03c0.47-0.48,0.46-1.25-0.03-1.72
	c-0.48-0.47-1.25-0.46-1.72,0.03c-0.13,0.14-0.22,0.3-0.28,0.47c0.05-0.41-0.08-0.84-0.4-1.15c-0.55-0.54-1.42-0.53-1.96,0.02
	c-0.01,0.01-0.02,0.03-0.03,0.04c-0.07-0.26-0.2-0.51-0.4-0.72c-0.56-0.55-1.43-0.59-2.04-0.12c-0.08-0.19-0.2-0.38-0.36-0.53
	c-0.57-0.57-1.44-0.65-2.1-0.25c-0.08-0.14-0.18-0.28-0.3-0.4c-0.58-0.59-1.45-0.7-2.16-0.36c-0.07-0.1-0.15-0.2-0.24-0.29
	c-0.6-0.61-1.48-0.76-2.23-0.46c-0.05-0.07-0.11-0.13-0.17-0.19c-0.62-0.63-1.52-0.81-2.3-0.55c-0.03-0.04-0.06-0.07-0.1-0.11
	c-0.64-0.65-1.55-0.86-2.37-0.63c-0.01-0.01-0.02-0.02-0.03-0.03c-0.99-1.01-2.62-1.03-3.64-0.04c-1.01,0.99-1.03,2.62-0.04,3.64
	C1.93,79.13,3.05,79.32,3.99,78.94z M5.03,70.18c0.06,0.07,0.12,0.14,0.18,0.21c0.63,0.64,1.52,0.86,2.33,0.67
	c0.07,0.1,0.15,0.2,0.24,0.29c0.61,0.62,1.5,0.82,2.28,0.59c0.08,0.13,0.18,0.25,0.29,0.36c0.6,0.61,1.49,0.77,2.24,0.5
	c0.09,0.16,0.19,0.32,0.33,0.46c0.59,0.59,1.47,0.72,2.19,0.39c0.09,0.21,0.21,0.4,0.38,0.57c0.59,0.59,1.48,0.67,2.17,0.26
	c0.07,0.25,0.2,0.5,0.4,0.7c0.59,0.59,1.53,0.61,2.16,0.08c0.03,0.32,0.16,0.63,0.41,0.88c0.56,0.55,1.46,0.54,2.02-0.02
	c0.13-0.13,0.22-0.28,0.29-0.44c-0.21,0.47-0.13,1.04,0.26,1.42c0.5,0.48,1.29,0.47,1.77-0.03c0.48-0.5,0.47-1.29-0.03-1.77
	c-0.5-0.48-1.29-0.47-1.77,0.03c-0.09,0.1-0.16,0.21-0.22,0.32c0.2-0.52,0.09-1.13-0.33-1.54c-0.51-0.5-1.29-0.54-1.85-0.12
	c-0.02-0.39-0.17-0.78-0.47-1.07c-0.5-0.49-1.24-0.59-1.83-0.29c-0.07-0.33-0.23-0.65-0.48-0.9c-0.5-0.5-1.22-0.63-1.85-0.41
	c-0.09-0.29-0.24-0.56-0.47-0.78c-0.5-0.51-1.22-0.67-1.86-0.51c-0.1-0.25-0.25-0.48-0.46-0.69c-0.51-0.52-1.22-0.71-1.89-0.59
	c-0.11-0.22-0.25-0.42-0.43-0.6c-0.52-0.53-1.24-0.75-1.92-0.66c-0.11-0.19-0.24-0.37-0.39-0.53c-0.53-0.54-1.25-0.78-1.96-0.73
	c-0.1-0.16-0.22-0.32-0.36-0.46c-1.02-1.04-2.7-1.06-3.74-0.04c-1.04,1.02-1.06,2.7-0.04,3.74C3.28,70.09,4.19,70.34,5.03,70.18z
	 M7.06,61.51c0.12,0.24,0.27,0.47,0.47,0.68c0.53,0.54,1.25,0.79,1.95,0.75c0.11,0.27,0.28,0.52,0.49,0.74
	c0.53,0.53,1.25,0.76,1.94,0.69c0.1,0.29,0.27,0.57,0.5,0.8c0.53,0.53,1.26,0.73,1.94,0.61c0.09,0.32,0.25,0.63,0.5,0.88
	c0.52,0.53,1.27,0.69,1.94,0.51c0.06,0.36,0.23,0.7,0.51,0.98c0.53,0.53,1.31,0.66,1.96,0.4c0.02,0.4,0.18,0.79,0.48,1.09
	c0.55,0.55,1.39,0.62,2.02,0.23c-0.07,0.45,0.07,0.92,0.42,1.26c0.58,0.57,1.51,0.56,2.07-0.02c0.57-0.58,0.56-1.51-0.02-2.07
	c-0.47-0.46-1.18-0.54-1.73-0.23c0.11-0.53-0.04-1.1-0.45-1.5c-0.45-0.44-1.09-0.57-1.65-0.39c0.01-0.48-0.16-0.97-0.53-1.34
	c-0.44-0.44-1.05-0.6-1.61-0.5c-0.04-0.45-0.22-0.89-0.57-1.23c-0.43-0.43-1.01-0.62-1.58-0.57c-0.07-0.42-0.27-0.83-0.6-1.16
	c-0.43-0.44-1-0.65-1.57-0.64c-0.1-0.4-0.3-0.78-0.61-1.09c-0.43-0.44-0.99-0.67-1.56-0.7c-0.12-0.38-0.32-0.74-0.62-1.04
	c-0.43-0.44-0.99-0.69-1.56-0.75c-0.13-0.36-0.33-0.7-0.62-0.99c-1.05-1.07-2.77-1.09-3.85-0.04C4.06,57.9,4.04,59.62,5.1,60.7
	C5.63,61.25,6.35,61.52,7.06,61.51z M10.12,53.03c0.11,0.45,0.33,0.87,0.67,1.22c0.44,0.45,1.01,0.71,1.59,0.77
	c0.09,0.46,0.31,0.9,0.66,1.26c0.45,0.45,1.03,0.69,1.62,0.72c0.06,0.48,0.27,0.94,0.63,1.31c0.46,0.46,1.06,0.68,1.66,0.66
	c0.02,0.49,0.21,0.98,0.59,1.36c0.47,0.47,1.1,0.66,1.71,0.58c-0.03,0.52,0.14,1.05,0.54,1.44c0.49,0.48,1.17,0.64,1.79,0.48
	c-0.11,0.54,0.04,1.12,0.46,1.54c0.53,0.53,1.32,0.62,1.96,0.3c-0.27,0.57-0.18,1.26,0.3,1.73c0.59,0.58,1.55,0.57,2.13-0.02
	c0.58-0.59,0.57-1.55-0.02-2.13c-0.46-0.45-1.13-0.54-1.69-0.29c0.34-0.64,0.24-1.45-0.3-1.99c-0.41-0.41-0.98-0.56-1.51-0.46
	c0.17-0.63,0.02-1.32-0.48-1.82c-0.39-0.39-0.9-0.56-1.41-0.54c0.09-0.62-0.1-1.26-0.57-1.74c-0.37-0.37-0.85-0.57-1.34-0.59
	c0.03-0.6-0.19-1.22-0.65-1.68c-0.36-0.36-0.82-0.58-1.29-0.64c-0.02-0.59-0.25-1.18-0.7-1.63c-0.35-0.36-0.79-0.58-1.24-0.67
	c-0.05-0.58-0.3-1.15-0.74-1.6c-0.35-0.35-0.77-0.58-1.21-0.7c-0.08-0.58-0.33-1.13-0.77-1.58c-1.08-1.1-2.85-1.12-3.95-0.04
	c-1.1,1.08-1.12,2.85-0.04,3.95C8.99,52.68,9.54,52.94,10.12,53.03z M14.22,44.86c0.02,0.65,0.27,1.3,0.77,1.81
	c0.37,0.37,0.81,0.61,1.28,0.72c-0.02,0.66,0.22,1.32,0.72,1.82c0.38,0.38,0.85,0.62,1.34,0.7c-0.06,0.66,0.15,1.34,0.66,1.85
	c0.4,0.4,0.9,0.62,1.42,0.67c-0.12,0.66,0.07,1.37,0.58,1.88c0.42,0.42,0.98,0.63,1.53,0.62c-0.2,0.66-0.05,1.41,0.47,1.93
	c0.46,0.46,1.09,0.63,1.68,0.53c-0.33,0.65-0.23,1.47,0.32,2.02c0.58,0.57,1.45,0.65,2.11,0.25c-0.04,0.04-0.09,0.07-0.13,0.11
	c-0.6,0.61-0.59,1.59,0.02,2.19s1.59,0.59,2.19-0.02c0.6-0.61,0.59-1.59-0.02-2.19c-0.51-0.5-1.28-0.57-1.87-0.22
	c0.05-0.04,0.11-0.08,0.16-0.13c0.67-0.68,0.67-1.78-0.01-2.45c-0.39-0.39-0.92-0.54-1.42-0.48c0.43-0.74,0.33-1.69-0.3-2.32
	c-0.35-0.35-0.8-0.53-1.25-0.55c0.29-0.76,0.14-1.64-0.47-2.26c-0.32-0.32-0.72-0.52-1.14-0.59c0.2-0.77,0.01-1.61-0.59-2.22
	c-0.3-0.3-0.66-0.5-1.05-0.6c0.14-0.77-0.08-1.6-0.68-2.2c-0.28-0.29-0.62-0.49-0.97-0.61c0.09-0.78-0.15-1.6-0.75-2.2
	c-0.27-0.27-0.58-0.47-0.91-0.61c0.05-0.79-0.22-1.59-0.81-2.2c-1.11-1.13-2.93-1.15-4.06-0.04c-1.13,1.11-1.15,2.93-0.04,4.06
	C13.34,44.48,13.77,44.72,14.22,44.86z M19.36,37.09c-0.15,0.85,0.09,1.76,0.74,2.42c0.3,0.3,0.64,0.52,1.02,0.65
	c-0.2,0.83,0.01,1.75,0.66,2.41c0.32,0.32,0.7,0.54,1.11,0.66c-0.27,0.82-0.08,1.75,0.57,2.4c0.35,0.35,0.78,0.57,1.23,0.66
	c-0.35,0.79-0.2,1.75,0.45,2.4c0.39,0.39,0.88,0.6,1.39,0.63c-0.47,0.76-0.37,1.77,0.29,2.43c0.45,0.45,1.07,0.63,1.66,0.55
	c-0.68,0.7-0.67,1.82,0.02,2.51c0.7,0.69,1.83,0.69,2.52-0.01c0.69-0.7,0.69-1.83-0.01-2.52c-0.39-0.39-0.92-0.55-1.43-0.5
	c0.01-0.01,0.03-0.02,0.04-0.03c0.77-0.77,0.77-2.02,0-2.79c-0.32-0.32-0.73-0.5-1.15-0.55c0.59-0.84,0.51-2.01-0.24-2.77
	c-0.28-0.28-0.62-0.47-0.98-0.56c0.47-0.89,0.33-2.01-0.42-2.76c-0.25-0.25-0.54-0.43-0.85-0.55c0.38-0.92,0.2-2.02-0.54-2.78
	c-0.22-0.22-0.48-0.4-0.75-0.52c0.32-0.95,0.1-2.04-0.65-2.8c-0.2-0.2-0.42-0.37-0.66-0.49c0.26-0.97,0.02-2.06-0.74-2.83
	c-1.14-1.16-3-1.18-4.17-0.04s-1.18,3-0.04,4.17C18.7,36.74,19.02,36.95,19.36,37.09z M25.53,29.85c-0.41,1.01-0.21,2.21,0.61,3.03
	c0.24,0.24,0.5,0.42,0.79,0.56c-0.47,0.97-0.31,2.17,0.49,2.99c0.27,0.27,0.59,0.47,0.92,0.6c-0.55,0.93-0.44,2.14,0.36,2.94
	c0.31,0.31,0.69,0.52,1.09,0.63c-0.66,0.87-0.6,2.12,0.19,2.92c0.37,0.37,0.84,0.59,1.33,0.64c-0.02,0.02-0.04,0.03-0.05,0.04
	c-0.79,0.79-0.79,2.07,0,2.86c0.79,0.79,2.07,0.79,2.86,0c0.79-0.79,0.79-2.07,0-2.86c-0.32-0.32-0.71-0.5-1.12-0.56
	c0.04-0.04,0.08-0.07,0.12-0.11c0.87-0.87,0.87-2.28,0.01-3.15c-0.25-0.25-0.55-0.43-0.87-0.54c0.81-0.95,0.78-2.38-0.12-3.28
	c-0.21-0.21-0.45-0.37-0.7-0.49c0.7-1.02,0.61-2.42-0.29-3.33c-0.17-0.17-0.36-0.31-0.56-0.43c0.62-1.07,0.48-2.46-0.43-3.39
	c-0.14-0.14-0.29-0.26-0.44-0.37c0.55-1.12,0.38-2.51-0.55-3.45c-1.17-1.19-3.08-1.21-4.27-0.04c-1.19,1.17-1.21,3.08-0.04,4.27
	C25.06,29.54,25.28,29.71,25.53,29.85z M32.56,23.37c-0.72,1.11-0.61,2.62,0.36,3.6c0.19,0.19,0.39,0.34,0.61,0.47
	c-0.8,1.05-0.74,2.55,0.22,3.52c0.23,0.24,0.5,0.42,0.78,0.55c-0.91,0.97-0.9,2.49,0.05,3.44c0.29,0.29,0.64,0.5,1,0.61
	c-0.06,0.05-0.11,0.1-0.17,0.15c-0.89,0.89-0.89,2.33-0.01,3.22c0.39,0.39,0.88,0.61,1.38,0.66c-0.2,0.1-0.39,0.23-0.56,0.4
	c-0.81,0.81-0.81,2.13,0,2.94c0.81,0.81,2.13,0.81,2.94,0c0.81-0.81,0.81-2.13,0-2.94c-0.34-0.34-0.76-0.53-1.2-0.59
	c0.24-0.11,0.47-0.26,0.67-0.46c0.89-0.89,0.89-2.33,0.01-3.22c-0.24-0.24-0.52-0.41-0.82-0.53c0.1-0.07,0.19-0.15,0.27-0.23
	c0.97-0.97,0.98-2.54,0.02-3.51c-0.18-0.18-0.38-0.33-0.59-0.44c0.01-0.01,0.02-0.02,0.03-0.03c1.06-1.04,1.07-2.74,0.02-3.8
	c-0.13-0.13-0.27-0.24-0.41-0.34c0.99-1.13,0.95-2.84-0.12-3.93c-0.09-0.09-0.18-0.17-0.27-0.24c0.91-1.2,0.83-2.92-0.26-4.03
	c-1.2-1.22-3.16-1.24-4.38-0.04c-1.22,1.2-1.24,3.16-0.04,4.38C32.24,23.13,32.4,23.26,32.56,23.37z M44.39,13.2
	c-1.23-1.25-3.23-1.27-4.48-0.04c-1.25,1.23-1.27,3.23-0.04,4.48c0.1,0.1,0.2,0.18,0.3,0.27c-1.08,1.15-1.07,2.96,0.05,4.1
	c0.15,0.15,0.3,0.28,0.47,0.39c-0.03,0.03-0.06,0.05-0.09,0.08c-1.08,1.07-1.09,2.81-0.03,3.89c0.21,0.21,0.44,0.38,0.68,0.5
	c-0.11,0.08-0.22,0.16-0.31,0.26c-1,0.99-1,2.6-0.02,3.6c0.29,0.29,0.63,0.49,0.99,0.62c-0.23,0.11-0.44,0.26-0.63,0.45
	c-0.91,0.91-0.92,2.39-0.01,3.3c0.91,0.91,2.39,0.92,3.3,0.01s0.92-2.39,0.01-3.3c-0.24-0.24-0.52-0.42-0.83-0.53
	c0.28-0.12,0.54-0.29,0.76-0.52c1-0.99,1-2.6,0.02-3.6c-0.16-0.16-0.33-0.29-0.52-0.4c0.16-0.1,0.31-0.22,0.45-0.36
	c1.08-1.07,1.09-2.81,0.03-3.89c-0.1-0.1-0.2-0.18-0.3-0.26c0.08-0.06,0.15-0.13,0.22-0.2c1.17-1.15,1.18-3.02,0.03-4.19
	c-0.04-0.04-0.09-0.08-0.14-0.12c0.01-0.01,0.03-0.03,0.05-0.04C45.6,16.46,45.62,14.45,44.39,13.2z M140,19.57
	c-1.54-1.58-4.07-1.6-5.65-0.06c-1.27,1.24-1.53,3.13-0.78,4.63c-1.45-1.05-3.48-0.94-4.8,0.36c-1.47,1.44-1.49,3.81-0.04,5.28
	c1.45,1.47,3.81,1.49,5.28,0.04c1.17-1.15,1.42-2.87,0.75-4.27c1.55,1.17,3.76,1.06,5.19-0.34C141.52,23.67,141.55,21.14,140,19.57z
	 M130.51,143.96c-0.37,0.36-0.37,0.95-0.01,1.32c0.36,0.37,0.95,0.37,1.32,0.01c0.37-0.36,0.37-0.95,0.01-1.32
	C131.47,143.6,130.88,143.6,130.51,143.96z M123.32,149.24c-0.39,0.39-0.4,1.02-0.01,1.42c0.39,0.39,1.02,0.4,1.42,0.01
	c0.39-0.39,0.4-1.02,0.01-1.42C124.35,148.86,123.71,148.85,123.32,149.24z M115.68,153.59c-0.42,0.42-0.43,1.09-0.01,1.52
	c0.42,0.42,1.09,0.43,1.52,0.01c0.42-0.42,0.43-1.09,0.01-1.52C116.78,153.18,116.1,153.18,115.68,153.59z M107.68,157.01
	c-0.45,0.44-0.46,1.17-0.01,1.62c0.44,0.45,1.17,0.46,1.62,0.01c0.45-0.44,0.46-1.17,0.01-1.62S108.13,156.57,107.68,157.01z
	 M99.39,159.49c-0.48,0.47-0.48,1.24-0.01,1.71c0.47,0.48,1.24,0.48,1.71,0.01c0.48-0.47,0.48-1.24,0.01-1.71
	C100.64,159.02,99.87,159.02,99.39,159.49z M90.92,161.02c-0.5,0.5-0.51,1.31-0.01,1.81c0.5,0.5,1.31,0.51,1.81,0.01
	c0.5-0.5,0.51-1.31,0.01-1.81C92.23,160.53,91.42,160.52,90.92,161.02z M84.24,161.63c-0.52-0.53-1.38-0.54-1.91-0.02
	c-0.53,0.52-0.54,1.38-0.02,1.91c0.52,0.53,1.38,0.54,1.91,0.02C84.76,163.01,84.76,162.16,84.24,161.63z M75.72,161.27
	c-0.55-0.56-1.45-0.57-2.01-0.02c-0.56,0.55-0.57,1.45-0.02,2.01c0.55,0.56,1.45,0.57,2.01,0.02
	C76.26,162.73,76.27,161.83,75.72,161.27z M67.25,162.06c0.59-0.58,0.6-1.52,0.02-2.11c-0.58-0.59-1.52-0.6-2.11-0.02
	c-0.59,0.58-0.6,1.52-0.02,2.11C65.72,162.63,66.66,162.64,67.25,162.06z M58.98,159.9c0.62-0.61,0.62-1.59,0.02-2.21
	c-0.61-0.62-1.59-0.62-2.21-0.02c-0.62,0.61-0.62,1.59-0.02,2.21C57.37,160.5,58.36,160.5,58.98,159.9z M50.96,156.79
	c0.64-0.63,0.65-1.67,0.02-2.31c-0.63-0.64-1.67-0.65-2.31-0.02c-0.64,0.63-0.65,1.67-0.02,2.31
	C49.28,157.42,50.31,157.42,50.96,156.79z M40.89,150.32c-0.67,0.66-0.68,1.74-0.02,2.41c0.66,0.67,1.74,0.68,2.41,0.02
	c0.67-0.66,0.68-1.74,0.02-2.41C42.64,149.67,41.56,149.66,40.89,150.32z M33.54,145.24c-0.7,0.69-0.71,1.81-0.02,2.51
	s1.81,0.71,2.51,0.02c0.7-0.69,0.71-1.81,0.02-2.51C35.36,144.56,34.23,144.55,33.54,145.24z M26.69,139.23
	c-0.73,0.71-0.73,1.88-0.02,2.61c0.71,0.73,1.88,0.73,2.61,0.02c0.73-0.71,0.73-1.88,0.02-2.6
	C28.58,138.53,27.41,138.52,26.69,139.23z M18.56,125.78c0.49,0.02,0.99-0.15,1.37-0.52c0.63-0.62,0.71-1.57,0.27-2.28
	c0.53,0.1,1.1-0.05,1.52-0.46c0.67-0.66,0.67-1.74,0.01-2.41c-0.04-0.04-0.09-0.08-0.14-0.11c0.6,0.36,1.39,0.29,1.91-0.23
	c0.61-0.61,0.61-1.6,0-2.21c-0.61-0.61-1.6-0.61-2.21,0c-0.61,0.61-0.61,1.6,0,2.21c0.04,0.04,0.08,0.06,0.11,0.09
	c-0.65-0.4-1.52-0.32-2.08,0.24c-0.56,0.56-0.65,1.41-0.27,2.06c-0.59-0.14-1.24,0.02-1.71,0.48c-0.54,0.54-0.68,1.32-0.42,1.99
	c-0.56-0.05-1.13,0.13-1.56,0.55c-0.53,0.52-0.7,1.27-0.51,1.94c-0.53,0.01-1.05,0.21-1.46,0.61c-0.84,0.82-0.85,2.16-0.03,3
	c0.82,0.84,2.16,0.85,3,0.03c0.6-0.59,0.77-1.44,0.52-2.19c0.46-0.03,0.91-0.21,1.26-0.56C18.75,127.4,18.88,126.51,18.56,125.78z
	 M13.97,120.39c0.46-0.46,0.66-1.08,0.59-1.68c0.52,0.03,1.04-0.15,1.44-0.54c0.48-0.47,0.65-1.13,0.53-1.73
	c0.53,0.08,1.09-0.08,1.51-0.48c0.5-0.49,0.63-1.21,0.42-1.83c0.55,0.17,1.18,0.04,1.61-0.39c0.55-0.54,0.62-1.38,0.23-2.01
	c0.57,0.35,1.32,0.28,1.81-0.21c0.57-0.58,0.57-1.51,0-2.08c-0.58-0.57-1.51-0.57-2.08,0c-0.49,0.49-0.56,1.23-0.22,1.79
	c-0.63-0.4-1.47-0.33-2.01,0.21c-0.44,0.43-0.57,1.05-0.4,1.6c-0.62-0.22-1.33-0.09-1.83,0.4c-0.41,0.41-0.57,0.97-0.5,1.5
	c-0.61-0.13-1.26,0.04-1.73,0.51c-0.4,0.39-0.58,0.92-0.56,1.44c-0.59-0.07-1.21,0.11-1.67,0.57c-0.39,0.38-0.59,0.88-0.61,1.38
	c-0.58-0.02-1.18,0.18-1.63,0.62c-0.87,0.85-0.88,2.24-0.03,3.11c0.85,0.87,2.24,0.88,3.11,0.03c0.46-0.45,0.67-1.04,0.66-1.64
	C13.09,120.96,13.59,120.77,13.97,120.39z M72.88,11.72c-0.65,0.07-1.29,0.35-1.79,0.85c-1.18,1.17-1.2,3.08-0.03,4.26
	c0.21,0.22,0.45,0.39,0.71,0.53c-0.84-0.12-1.72,0.13-2.36,0.77c-1.09,1.08-1.1,2.85-0.02,3.94c1.08,1.09,2.85,1.1,3.94,0.02
	c1.09-1.08,1.1-2.85,0.02-3.94c-0.19-0.19-0.4-0.35-0.62-0.47c0.92,0.15,1.89-0.12,2.6-0.83c1.18-1.17,1.2-3.08,0.03-4.26
	c-0.02-0.02-0.04-0.04-0.06-0.05c0.74-0.06,1.46-0.36,2.03-0.92c1.19-1.17,1.28-3.04,0.27-4.32c0.63-0.13,1.23-0.43,1.72-0.92
	c1.37-1.34,1.39-3.54,0.05-4.91c-1.34-1.37-3.54-1.39-4.91-0.05c-1.31,1.29-1.38,3.36-0.2,4.74C73.71,6.31,73.19,6.58,72.77,7
	c-1.28,1.26-1.29,3.31-0.04,4.58C72.78,11.63,72.83,11.68,72.88,11.72z M81.25,11.36c0.03,0.04,0.07,0.07,0.11,0.1
	c-0.82-0.03-1.65,0.26-2.28,0.88c-1.21,1.19-1.22,3.14-0.03,4.35c1.19,1.21,3.14,1.22,4.35,0.03c1.21-1.19,1.22-3.14,0.03-4.35
	c-0.01-0.01-0.02-0.02-0.03-0.03c0.91,0.06,1.83-0.25,2.53-0.94c1.19-1.17,1.3-3.02,0.34-4.32c0.79-0.07,1.57-0.4,2.18-1
	c1.4-1.37,1.42-3.62,0.05-5.01c-1.37-1.4-3.62-1.42-5.01-0.05c-1.31,1.29-1.41,3.34-0.29,4.74c-0.7,0.09-1.38,0.39-1.92,0.92
	C79.99,7.96,79.97,10.06,81.25,11.36z M89.74,12.09c0.03,0.03,0.06,0.05,0.09,0.08c-0.98-0.19-2.03,0.09-2.8,0.85
	c-1.24,1.22-1.25,3.21-0.03,4.44c1.22,1.24,3.21,1.25,4.44,0.03c1.24-1.22,1.25-3.21,0.03-4.44c-0.01-0.01-0.02-0.01-0.02-0.02
	c1.07,0.23,2.23-0.07,3.07-0.9c1.19-1.17,1.33-3.01,0.41-4.33c0.96,0.04,1.93-0.3,2.67-1.03c1.43-1.4,1.45-3.69,0.05-5.12
	c-1.4-1.43-3.69-1.45-5.12-0.05c-1.31,1.28-1.43,3.31-0.37,4.74c-0.86,0-1.72,0.32-2.38,0.97C88.45,8.62,88.43,10.76,89.74,12.09z
	 M98.15,8.88c-1.36,1.34-1.38,3.52-0.04,4.88c0.04,0.04,0.07,0.07,0.11,0.1c-1.13-0.43-2.46-0.19-3.38,0.72
	c-1.26,1.24-1.27,3.28-0.03,4.54c1.24,1.26,3.28,1.27,4.54,0.03c1.26-1.24,1.27-3.28,0.03-4.54c-0.02-0.02-0.04-0.04-0.06-0.06
	c1.23,0.48,2.68,0.23,3.68-0.75c1.19-1.17,1.35-2.99,0.48-4.34c1.12,0.18,2.3-0.15,3.17-1.01c1.46-1.43,1.48-3.77,0.05-5.22
	s-3.77-1.48-5.22-0.05c-1.3,1.28-1.46,3.29-0.45,4.74C100,7.79,98.94,8.1,98.15,8.88z M106.32,11.39c-1.39,1.36-1.4,3.59-0.04,4.98
	c1.36,1.39,3.59,1.4,4.98,0.04c1.19-1.17,1.37-2.97,0.54-4.33c1.26,0.36,2.68,0.06,3.68-0.93c1.49-1.46,1.51-3.84,0.05-5.33
	c-1.46-1.49-3.84-1.51-5.33-0.05c-1.3,1.27-1.48,3.26-0.53,4.73C108.51,10.2,107.23,10.49,106.32,11.39z M114.2,14.84
	c-1.41,1.39-1.43,3.66-0.04,5.08c1.39,1.41,3.66,1.43,5.08,0.04c1.18-1.16,1.39-2.94,0.61-4.32c1.39,0.59,3.05,0.33,4.19-0.79
	c1.52-1.49,1.54-3.92,0.05-5.44c-1.49-1.52-3.92-1.54-5.44-0.05c-1.29,1.27-1.5,3.22-0.61,4.71
	C116.77,13.55,115.25,13.81,114.2,14.84z M121.72,19.21c-1.44,1.42-1.46,3.74-0.04,5.18c1.42,1.44,3.74,1.46,5.18,0.04
	c1.18-1.16,1.4-2.91,0.68-4.31c1.49,0.86,3.41,0.66,4.7-0.6c1.55-1.52,1.57-4,0.05-5.54c-1.52-1.55-4-1.57-5.54-0.05
	c-1.28,1.26-1.51,3.18-0.69,4.68C124.67,17.85,122.9,18.05,121.72,19.21z M124.83,139.19c-0.34,0.34-0.34,0.89-0.01,1.23
	c0.34,0.34,0.89,0.34,1.23,0.01c0.34-0.34,0.34-0.89,0.01-1.23C125.72,138.86,125.17,138.85,124.83,139.19z M118.2,144.19
	c-0.37,0.36-0.37,0.95-0.01,1.32c0.36,0.37,0.95,0.37,1.32,0.01c0.37-0.36,0.37-0.95,0.01-1.32
	C119.16,143.83,118.57,143.83,118.2,144.19z M112.54,149.75c0.39-0.39,0.4-1.02,0.01-1.41c-0.39-0.39-1.02-0.4-1.41-0.01
	s-0.4,1.02-0.01,1.41C111.51,150.14,112.15,150.14,112.54,149.75z M103.71,151.62c-0.42,0.41-0.42,1.08-0.01,1.5
	c0.41,0.42,1.08,0.42,1.5,0.01c0.42-0.41,0.42-1.08,0.01-1.5C104.8,151.21,104.13,151.2,103.71,151.62z M96.01,154.02
	c-0.44,0.44-0.45,1.15-0.01,1.59c0.44,0.44,1.15,0.45,1.59,0.01c0.44-0.44,0.45-1.15,0.01-1.59
	C97.17,153.59,96.45,153.59,96.01,154.02z M88.1,155.55c-0.47,0.46-0.47,1.22-0.01,1.69c0.46,0.47,1.22,0.47,1.69,0.01
	c0.47-0.46,0.47-1.22,0.01-1.69S88.57,155.09,88.1,155.55z M81.84,156.2c-0.49-0.49-1.28-0.5-1.78-0.01
	c-0.49,0.49-0.5,1.28-0.01,1.78c0.49,0.49,1.28,0.5,1.78,0.01C82.32,157.49,82.33,156.7,81.84,156.2z M73.84,155.94
	c-0.51-0.52-1.35-0.53-1.87-0.01c-0.52,0.51-0.53,1.35-0.01,1.87c0.51,0.52,1.35,0.53,1.87,0.01
	C74.35,157.3,74.35,156.46,73.84,155.94z M65.89,156.74c0.55-0.54,0.55-1.42,0.01-1.96c-0.54-0.55-1.42-0.55-1.96-0.01
	c-0.55,0.54-0.55,1.42-0.01,1.96C64.46,157.27,65.34,157.28,65.89,156.74z M58.12,154.77c0.57-0.56,0.58-1.48,0.01-2.05
	c-0.56-0.57-1.48-0.58-2.05-0.01c-0.57,0.56-0.58,1.48-0.01,2.05C56.63,155.33,57.55,155.33,58.12,154.77z M50.61,151.91
	c0.6-0.59,0.6-1.55,0.01-2.15c-0.59-0.6-1.55-0.6-2.15-0.01c-0.6,0.59-0.6,1.55-0.01,2.15C49.05,152.49,50.01,152.5,50.61,151.91z
	 M41.2,145.92c-0.62,0.61-0.63,1.62-0.01,2.24c0.61,0.62,1.62,0.63,2.24,0.01c0.62-0.61,0.63-1.62,0.01-2.24
	C42.82,145.31,41.82,145.31,41.2,145.92z M34.32,141.22c-0.65,0.64-0.65,1.68-0.02,2.33c0.64,0.65,1.68,0.65,2.33,0.01
	c0.65-0.64,0.65-1.68,0.02-2.33C36.02,140.59,34.97,140.59,34.32,141.22z M27.93,135.67c-0.67,0.66-0.68,1.75-0.02,2.42
	c0.66,0.67,1.75,0.68,2.42,0.02c0.67-0.66,0.68-1.75,0.02-2.42C29.69,135.01,28.6,135,27.93,135.67z M24.71,131.93
	c0.7-0.69,0.71-1.81,0.02-2.51c-0.69-0.7-1.81-0.71-2.51-0.02c-0.7,0.69-0.71,1.81-0.02,2.51c0.01,0.01,0.03,0.02,0.04,0.03
	c-0.59-0.1-1.21,0.07-1.67,0.52c-0.68,0.67-0.75,1.73-0.2,2.48c-0.52,0-1.04,0.19-1.44,0.58c-0.81,0.79-0.82,2.09-0.03,2.89
	c0.79,0.81,2.09,0.82,2.89,0.03c0.75-0.74,0.81-1.91,0.17-2.72c0.47-0.01,0.93-0.19,1.29-0.54c0.75-0.74,0.76-1.95,0.02-2.7
	c-0.03-0.03-0.06-0.05-0.09-0.07C23.72,132.5,24.29,132.34,24.71,131.93z M63.1,17.87c0.19,0.19,0.39,0.34,0.61,0.47
	c-0.64,0.04-1.27,0.3-1.76,0.78c-1.07,1.06-1.08,2.78-0.02,3.85c1.06,1.07,2.78,1.08,3.85,0.02c1.07-1.06,1.08-2.78,0.02-3.85
	c-0.16-0.16-0.33-0.29-0.51-0.4c0.71-0.02,1.42-0.3,1.97-0.84c1.16-1.14,1.17-3.01,0.03-4.17c-0.03-0.03-0.07-0.06-0.1-0.09
	c0.57-0.12,1.11-0.4,1.55-0.84c1.19-1.17,1.26-3.05,0.19-4.31c0.47-0.16,0.91-0.42,1.28-0.79c1.34-1.31,1.36-3.46,0.05-4.8
	c-1.31-1.34-3.46-1.36-4.8-0.05c-1.32,1.29-1.36,3.39-0.11,4.73c-0.39,0.15-0.75,0.38-1.06,0.69c-1.25,1.23-1.27,3.24-0.04,4.48
	c0.06,0.07,0.13,0.13,0.2,0.18c-0.49,0.13-0.95,0.37-1.33,0.75C61.97,14.85,61.96,16.71,63.1,17.87z M102.44,17.02
	c-1.29,1.27-1.3,3.34-0.03,4.63c1.27,1.29,3.34,1.3,4.63,0.03c1.29-1.27,1.3-3.34,0.03-4.63C105.79,15.76,103.72,15.75,102.44,17.02
	z M109.75,20.32c-1.31,1.29-1.33,3.41-0.03,4.72c1.3,1.31,3.41,1.33,4.72,0.03c1.31-1.29,1.33-3.41,0.03-4.72
	C113.17,19.04,111.06,19.03,109.75,20.32z M121.48,29.33c1.34-1.32,1.35-3.47,0.03-4.81c-1.32-1.34-3.47-1.35-4.81-0.03
	c-1.34,1.32-1.35,3.47-0.03,4.81C117.98,30.64,120.14,30.65,121.48,29.33z M128.07,34.44c1.36-1.35,1.38-3.54,0.03-4.9
	c-1.35-1.36-3.54-1.38-4.9-0.03c-1.36,1.35-1.38,3.54-0.03,4.9C124.51,35.77,126.71,35.78,128.07,34.44z M119.14,134.42
	c-0.31,0.31-0.32,0.82,0,1.13c0.31,0.31,0.82,0.32,1.13,0c0.31-0.31,0.32-0.82,0-1.13C119.96,134.11,119.46,134.11,119.14,134.42z
	 M113.08,139.14c-0.34,0.33-0.34,0.88-0.01,1.22c0.33,0.34,0.88,0.34,1.22,0.01c0.34-0.33,0.34-0.88,0.01-1.22
	S113.42,138.8,113.08,139.14z M107.9,143.08c-0.36-0.36-0.94-0.36-1.3-0.01c-0.36,0.36-0.36,0.94-0.01,1.3
	c0.36,0.36,0.94,0.36,1.3,0.01C108.25,144.03,108.26,143.44,107.9,143.08z M101.14,147.62c0.38-0.38,0.39-1,0.01-1.39
	c-0.38-0.39-1-0.39-1.39-0.01c-0.38,0.38-0.39,1-0.01,1.39C100.13,148,100.75,148,101.14,147.62z M94.09,150.04
	c0.41-0.41,0.41-1.06,0.01-1.47c-0.4-0.41-1.06-0.41-1.47-0.01c-0.41,0.41-0.41,1.06-0.01,1.47
	C93.03,150.44,93.69,150.45,94.09,150.04z M85.28,150.08c-0.43,0.43-0.44,1.13-0.01,1.56c0.43,0.43,1.13,0.44,1.56,0.01
	c0.43-0.43,0.44-1.13,0.01-1.56C86.41,149.66,85.72,149.66,85.28,150.08z M79.44,150.78c-0.45-0.46-1.19-0.46-1.64-0.01
	c-0.46,0.45-0.46,1.19-0.01,1.64c0.45,0.46,1.19,0.46,1.64,0.01C79.89,151.97,79.89,151.23,79.44,150.78z M71.96,150.62
	c-0.48-0.48-1.25-0.48-1.73-0.01s-0.48,1.25-0.01,1.73c0.48,0.48,1.25,0.48,1.73,0.01C72.43,151.87,72.44,151.1,71.96,150.62z
	 M64.52,151.42c0.5-0.5,0.51-1.31,0.01-1.81c-0.5-0.5-1.31-0.51-1.81-0.01c-0.5,0.5-0.51,1.31-0.01,1.81S64.02,151.92,64.52,151.42z
	 M57.27,149.64c0.53-0.52,0.53-1.37,0.01-1.9s-1.37-0.53-1.9-0.01c-0.53,0.52-0.53,1.37-0.01,1.9
	C55.89,150.16,56.74,150.16,57.27,149.64z M50.26,147.03c0.55-0.55,0.55-1.43,0.01-1.98c-0.55-0.55-1.43-0.55-1.98-0.01
	c-0.55,0.55-0.55,1.43-0.01,1.98C48.82,147.57,49.71,147.58,50.26,147.03z M41.51,141.53c-0.57,0.57-0.58,1.49-0.01,2.07
	c0.57,0.57,1.49,0.58,2.07,0.01c0.57-0.57,0.58-1.49,0.01-2.07C43.01,140.96,42.08,140.96,41.51,141.53z M35.11,137.21
	c-0.6,0.59-0.6,1.56-0.01,2.15c0.59,0.6,1.56,0.6,2.15,0.01c0.6-0.59,0.6-1.56,0.01-2.15C36.67,136.62,35.71,136.62,35.11,137.21z
	 M29.17,132.1c-0.62,0.62-0.62,1.62-0.01,2.24c0.62,0.62,1.62,0.62,2.24,0.01c0.62-0.62,0.62-1.62,0.01-2.24
	C30.8,131.49,29.79,131.49,29.17,132.1z M23.84,128.65c0.64,0.64,1.68,0.65,2.32,0.01c0.64-0.64,0.65-1.68,0.01-2.32
	c-0.64-0.64-1.68-0.65-2.32-0.01C23.21,126.97,23.2,128.01,23.84,128.65z M54.67,24.73c1.04,1.04,2.72,1.05,3.77,0.02
	c1.04-1.04,1.05-2.72,0.02-3.77c-0.15-0.15-0.3-0.27-0.47-0.38c0.52-0.11,1.01-0.36,1.41-0.76c1.13-1.12,1.14-2.94,0.03-4.08
	c-0.05-0.05-0.1-0.09-0.15-0.14c0.39-0.15,0.77-0.38,1.08-0.69c1.19-1.17,1.23-3.08,0.11-4.3c0.31-0.15,0.59-0.35,0.85-0.6
	c1.31-1.28,1.33-3.39,0.05-4.7S57.97,4,56.67,5.29s-1.33,3.39-0.05,4.7c0.01,0.01,0.03,0.03,0.04,0.04
	c-0.23,0.13-0.46,0.29-0.66,0.49c-1.22,1.2-1.24,3.16-0.04,4.39c0.09,0.09,0.18,0.17,0.27,0.24c-0.32,0.14-0.63,0.34-0.89,0.6
	c-1.13,1.12-1.14,2.94-0.03,4.08c0.18,0.18,0.38,0.33,0.59,0.46c-0.45,0.11-0.88,0.34-1.23,0.69C53.64,22,53.63,23.68,54.67,24.73z
	 M76.88,18.01c-1.12,1.11-1.12,2.91-0.02,4.02c1.11,1.12,2.91,1.12,4.02,0.02c1.12-1.11,1.12-2.91,0.02-4.02
	C79.8,16.91,78,16.9,76.88,18.01z M84.28,18.73c-1.14,1.13-1.15,2.97-0.02,4.11c1.13,1.14,2.97,1.15,4.11,0.02
	c1.14-1.13,1.15-2.97,0.02-4.11C87.25,17.6,85.42,17.6,84.28,18.73z M91.53,20.27c-1.16,1.15-1.17,3.03-0.02,4.19
	c1.15,1.16,3.03,1.17,4.19,0.02c1.16-1.15,1.17-3.03,0.02-4.19S92.69,19.12,91.53,20.27z M98.55,22.64
	c-1.19,1.18-1.19,3.09-0.02,4.28c1.18,1.19,3.09,1.19,4.28,0.02c1.19-1.18,1.19-3.09,0.02-4.28
	C101.66,21.47,99.74,21.46,98.55,22.64z M105.29,25.81c-1.21,1.2-1.22,3.15-0.02,4.36s3.15,1.22,4.36,0.02
	c1.21-1.2,1.22-3.15,0.02-4.36C108.46,24.62,106.5,24.61,105.29,25.81z M111.67,29.77c-1.23,1.22-1.24,3.21-0.02,4.45
	c1.22,1.23,3.21,1.24,4.45,0.02c1.23-1.22,1.24-3.21,0.02-4.45C114.9,28.55,112.91,28.54,111.67,29.77z M122.15,34.52
	c-1.25-1.26-3.27-1.27-4.53-0.02c-1.26,1.25-1.27,3.27-0.02,4.53c1.25,1.26,3.27,1.27,4.53,0.02
	C123.39,37.8,123.4,35.77,122.15,34.52z M113.46,129.65c-0.29,0.29-0.29,0.75,0,1.04c0.29,0.29,0.75,0.29,1.04,0
	c0.29-0.29,0.29-0.75,0-1.04C114.21,129.37,113.74,129.37,113.46,129.65z M109.08,135.21c0.31-0.31,0.31-0.81,0-1.12
	c-0.31-0.31-0.81-0.31-1.12,0c-0.31,0.31-0.31,0.81,0,1.12C108.27,135.51,108.77,135.52,109.08,135.21z M103.25,139.02
	c0.33-0.33,0.33-0.87,0-1.2c-0.33-0.33-0.86-0.33-1.2,0c-0.33,0.33-0.33,0.87,0,1.2C102.38,139.35,102.92,139.35,103.25,139.02z
	 M95.79,142.1c0.35,0.35,0.92,0.35,1.27,0c0.35-0.35,0.35-0.92,0-1.27c-0.35-0.35-0.92-0.35-1.27,0
	C95.44,141.18,95.44,141.75,95.79,142.1z M89.24,144.45c0.37,0.37,0.98,0.38,1.35,0c0.37-0.37,0.38-0.98,0-1.35
	c-0.37-0.37-0.98-0.38-1.35,0C88.87,143.47,88.87,144.08,89.24,144.45z M82.47,146.05c0.39,0.4,1.03,0.4,1.43,0
	c0.4-0.39,0.4-1.03,0-1.43c-0.39-0.4-1.03-0.4-1.43,0C82.07,145.01,82.07,145.65,82.47,146.05z M77.04,146.86
	c0.42-0.42,0.42-1.09,0-1.51s-1.09-0.42-1.51,0c-0.42,0.42-0.42,1.09,0,1.51S76.62,147.28,77.04,146.86z M70.08,145.3
	c-0.44-0.44-1.15-0.44-1.59,0c-0.44,0.44-0.44,1.15,0,1.59c0.44,0.44,1.15,0.44,1.59,0C70.52,146.45,70.52,145.74,70.08,145.3z
	 M63.16,144.43c-0.46-0.46-1.2-0.46-1.66,0c-0.46,0.46-0.46,1.2,0,1.66s1.2,0.46,1.66,0C63.62,145.64,63.62,144.89,63.16,144.43z
	 M56.42,144.51c0.48-0.48,0.48-1.26,0-1.74c-0.48-0.48-1.26-0.48-1.74,0c-0.48,0.48-0.48,1.26,0,1.74
	C55.16,144.99,55.94,144.99,56.42,144.51z M49.91,142.15c0.5-0.5,0.51-1.32,0-1.82c-0.5-0.5-1.32-0.51-1.82,0
	c-0.5,0.5-0.51,1.32,0,1.82C48.59,142.65,49.41,142.65,49.91,142.15z M41.82,137.13c-0.53,0.52-0.53,1.37,0,1.9
	c0.52,0.53,1.37,0.53,1.9,0c0.53-0.52,0.53-1.37,0-1.9C43.19,136.61,42.34,136.61,41.82,137.13z M35.9,133.19
	c-0.55,0.54-0.55,1.43,0,1.98c0.54,0.55,1.43,0.55,1.98,0c0.55-0.54,0.55-1.43,0-1.98C37.33,132.65,36.45,132.65,35.9,133.19z
	 M32.47,130.59c0.57-0.57,0.57-1.49,0-2.05c-0.57-0.57-1.49-0.57-2.05,0c-0.57,0.57-0.57,1.49,0,2.05
	C30.98,131.16,31.9,131.16,32.47,130.59z M27.63,123.27c-0.59-0.59-1.54-0.59-2.13,0c-0.59,0.59-0.59,1.54,0,2.13
	c0.59,0.59,1.54,0.59,2.13,0C28.22,124.82,28.22,123.86,27.63,123.27z M47.49,31.99c0.93,0.94,2.44,0.94,3.38,0.01
	c0.94-0.93,0.94-2.44,0.01-3.38c-0.27-0.27-0.58-0.46-0.91-0.57c0.5-0.09,0.97-0.33,1.35-0.71c1.02-1.01,1.03-2.66,0.02-3.68
	c-0.15-0.15-0.31-0.27-0.48-0.38c0.33-0.14,0.64-0.33,0.91-0.6c1.11-1.09,1.12-2.88,0.03-3.98c-0.07-0.07-0.14-0.14-0.22-0.2
	c0.23-0.13,0.44-0.29,0.64-0.48c1.19-1.17,1.21-3.09,0.04-4.29c-0.01-0.01-0.01-0.01-0.02-0.02c0.15-0.1,0.3-0.22,0.43-0.35
	c1.28-1.25,1.3-3.31,0.04-4.59s-3.31-1.3-4.59-0.04c-1.28,1.25-1.3,3.31-0.04,4.59c0.05,0.05,0.11,0.1,0.16,0.15
	c-0.09,0.07-0.18,0.15-0.27,0.23c-1.19,1.17-1.21,3.09-0.04,4.29c0.11,0.11,0.23,0.21,0.36,0.31c-0.17,0.11-0.33,0.23-0.48,0.38
	c-1.11,1.09-1.12,2.88-0.03,3.98c0.19,0.19,0.4,0.35,0.62,0.47c-0.27,0.12-0.52,0.29-0.75,0.52c-1.02,1.01-1.03,2.66-0.02,3.68
	c0.31,0.31,0.67,0.52,1.06,0.65c-0.44,0.09-0.85,0.31-1.19,0.64C46.56,29.54,46.56,31.05,47.49,31.99z M54.03,26.19
	c-0.96,0.95-0.96,2.5-0.01,3.46c0.95,0.96,2.5,0.96,3.46,0.01c0.96-0.95,0.96-2.5,0.01-3.46C56.53,25.24,54.98,25.23,54.03,26.19z
	 M60.79,24.55c-0.98,0.97-0.98,2.56-0.01,3.54c0.97,0.98,2.56,0.98,3.54,0.01c0.98-0.97,0.98-2.56,0.01-3.54
	C63.35,23.58,61.77,23.57,60.79,24.55z M67.72,23.71c-1,1-1,2.61-0.01,3.61c1,1,2.61,1,3.61,0.01c1-1,1-2.61,0.01-3.61
	C70.34,22.71,68.72,22.71,67.72,23.71z M74.67,27.37c1.02,1.02,2.67,1.02,3.69,0.01c1.02-1.02,1.02-2.67,0.01-3.69
	c-1.02-1.02-2.67-1.02-3.69-0.01C73.65,24.69,73.65,26.34,74.67,27.37z M81.53,24.44c-1.04,1.04-1.05,2.73-0.01,3.77
	s2.73,1.05,3.77,0.01c1.04-1.04,1.05-2.73,0.01-3.77C84.26,23.4,82.57,23.4,81.53,24.44z M88.21,25.97
	c-1.06,1.06-1.07,2.78-0.01,3.85c1.06,1.06,2.78,1.07,3.85,0.01c1.06-1.06,1.07-2.78,0.01-3.85S89.28,24.91,88.21,25.97z
	 M94.67,28.27c-1.09,1.08-1.09,2.84-0.01,3.93c1.08,1.09,2.84,1.09,3.93,0.01c1.09-1.08,1.09-2.84,0.01-3.93
	C97.52,27.19,95.76,27.18,94.67,28.27z M104.84,35.31c1.11-1.1,1.11-2.9,0.01-4c-1.1-1.11-2.9-1.11-4-0.01
	c-1.11,1.1-1.11,2.9-0.01,4C101.94,36.41,103.73,36.41,104.84,35.31z M110.73,35.05c-1.12-1.13-2.95-1.13-4.08-0.01
	c-1.13,1.12-1.13,2.95-0.01,4.08c1.12,1.13,2.95,1.13,4.08,0.01C111.86,38.01,111.86,36.18,110.73,35.05z M116.2,43.66
	c1.15-1.15,1.15-3.01,0.01-4.16c-1.15-1.15-3.01-1.15-4.16-0.01s-1.15,3.01-0.01,4.16C113.18,44.8,115.05,44.81,116.2,43.66z
	 M108.72,125.83c0.26-0.26,0.26-0.69,0-0.95c-0.26-0.26-0.69-0.26-0.95,0c-0.26,0.26-0.26,0.69,0,0.95S108.46,126.09,108.72,125.83z
	 M103.86,130.05c0.28-0.28,0.28-0.74,0-1.02c-0.28-0.28-0.74-0.28-1.02,0c-0.28,0.28-0.28,0.74,0,1.02
	C103.13,130.33,103.58,130.33,103.86,130.05z M97.51,132.56c-0.3,0.3-0.3,0.79,0,1.09c0.3,0.3,0.79,0.3,1.09,0s0.3-0.79,0-1.09
	S97.81,132.26,97.51,132.56z M91.83,135.44c-0.32,0.32-0.32,0.84,0,1.16c0.32,0.32,0.84,0.32,1.16,0c0.32-0.32,0.32-0.84,0-1.16
	S92.15,135.12,91.83,135.44z M85.86,137.64c-0.34,0.34-0.34,0.89,0,1.23c0.34,0.34,0.89,0.34,1.23,0c0.34-0.34,0.34-0.89,0-1.23
	C86.75,137.3,86.2,137.3,85.86,137.64z M80.96,140.45c0.36-0.36,0.36-0.94,0-1.3c-0.36-0.36-0.94-0.36-1.3,0
	c-0.36,0.36-0.36,0.94,0,1.3C80.01,140.81,80.6,140.81,80.96,140.45z M73.27,139.93c-0.38,0.38-0.38,0.99,0,1.37
	c0.38,0.38,0.99,0.38,1.37,0s0.38-0.99,0-1.37C74.26,139.55,73.65,139.55,73.27,139.93z M68.21,141.42c0.4-0.4,0.4-1.05,0-1.44
	c-0.4-0.4-1.05-0.4-1.44,0c-0.4,0.4-0.4,1.05,0,1.44C67.16,141.82,67.81,141.82,68.21,141.42z M61.8,139.26
	c-0.42-0.42-1.1-0.42-1.51,0c-0.42,0.42-0.42,1.1,0,1.51c0.42,0.42,1.1,0.42,1.51,0C62.22,140.35,62.21,139.68,61.8,139.26z
	 M55.56,139.38c0.44-0.44,0.44-1.15,0-1.59c-0.44-0.44-1.15-0.44-1.59,0c-0.44,0.44-0.44,1.15,0,1.59
	C54.42,139.82,55.13,139.82,55.56,139.38z M49.56,137.27c0.46-0.46,0.46-1.2,0-1.66c-0.46-0.46-1.2-0.46-1.66,0
	c-0.46,0.46-0.46,1.2,0,1.66C48.37,137.73,49.11,137.73,49.56,137.27z M42.12,132.73c-0.48,0.48-0.48,1.25,0,1.73
	c0.48,0.48,1.25,0.48,1.73,0c0.48-0.48,0.48-1.25,0-1.73C43.37,132.25,42.6,132.26,42.12,132.73z M36.69,129.18
	c-0.5,0.5-0.5,1.3,0,1.8c0.5,0.5,1.3,0.5,1.8,0s0.5-1.3,0-1.8C37.99,128.68,37.19,128.68,36.69,129.18z M33.53,124.97
	c-0.52-0.52-1.35-0.51-1.87,0c-0.52,0.52-0.52,1.35,0,1.87c0.52,0.52,1.35,0.52,1.87,0C34.05,126.32,34.04,125.49,33.53,124.97z
	 M29.09,122.14c0.54-0.54,0.53-1.41,0-1.94c-0.54-0.54-1.41-0.53-1.94,0c-0.54,0.54-0.53,1.41,0,1.94
	C27.68,122.68,28.55,122.68,29.09,122.14z M25.27,117.01c0.56-0.56,0.55-1.46,0-2.01c-0.56-0.56-1.46-0.55-2.01,0
	c-0.56,0.56-0.55,1.46,0,2.01C23.82,117.57,24.72,117.57,25.27,117.01z M41.62,36.45c-0.83,0.83-0.83,2.18,0,3.01
	c0.83,0.83,2.18,0.83,3.01,0c0.83-0.83,0.83-2.18,0-3.01C43.79,35.62,42.45,35.62,41.62,36.45z M50.43,36.66
	c0.85-0.85,0.85-2.23,0-3.08c-0.85-0.85-2.23-0.85-3.08,0c-0.85,0.85-0.85,2.23,0,3.08C48.2,37.51,49.58,37.51,50.43,36.66z
	 M53.37,34.56c0.87,0.87,2.28,0.87,3.15,0s0.87-2.28,0-3.15c-0.87-0.87-2.28-0.87-3.15,0C52.5,32.28,52.5,33.69,53.37,34.56z
	 M59.62,33.19c0.89,0.89,2.33,0.89,3.22,0c0.89-0.89,0.89-2.33,0-3.22c-0.89-0.89-2.33-0.89-3.22,0
	C58.73,30.86,58.73,32.3,59.62,33.19z M66.05,32.56c0.91,0.91,2.38,0.91,3.29,0c0.91-0.91,0.91-2.38,0-3.29
	c-0.91-0.91-2.38-0.91-3.29,0C65.14,30.18,65.14,31.66,66.05,32.56z M72.47,32.7c0.93,0.93,2.43,0.93,3.36,0
	c0.93-0.93,0.93-2.43,0-3.36s-2.43-0.93-3.36,0C71.54,30.27,71.54,31.77,72.47,32.7z M82.21,33.57c0.95-0.95,0.95-2.49,0-3.43
	c-0.95-0.95-2.49-0.95-3.43,0c-0.95,0.95-0.95,2.49,0,3.43C79.73,34.52,81.26,34.52,82.21,33.57z M84.9,31.67
	c-0.97,0.97-0.96,2.54,0,3.5c0.97,0.97,2.54,0.96,3.5,0c0.97-0.97,0.96-2.54,0-3.5C87.44,30.7,85.87,30.7,84.9,31.67z M94.37,37.46
	c0.99-0.99,0.98-2.59,0-3.57c-0.99-0.99-2.59-0.98-3.57,0c-0.99,0.99-0.98,2.59,0,3.57S93.38,38.45,94.37,37.46z M100.04,40.43
	c1.01-1.01,1-2.64,0-3.65c-1.01-1.01-2.64-1-3.65,0c-1.01,1.01-1,2.64,0,3.65C97.4,41.43,99.03,41.43,100.04,40.43z M105.35,40.32
	c-1.03-1.03-2.69-1.02-3.72,0c-1.03,1.03-1.02,2.69,0,3.72c1.03,1.03,2.69,1.02,3.72,0C106.38,43.01,106.38,41.35,105.35,40.32z
	 M110.26,48.27c1.04-1.05,1.04-2.74,0-3.79c-1.05-1.04-2.74-1.04-3.79,0c-1.04,1.05-1.04,2.74,0,3.79
	C107.52,49.32,109.22,49.32,110.26,48.27z M102.94,120.11c-0.24-0.23-0.62-0.23-0.85,0c-0.23,0.24-0.23,0.62,0,0.85
	c0.24,0.23,0.62,0.23,0.85,0C103.17,120.73,103.17,120.34,102.94,120.11z M97.72,123.98c-0.25,0.25-0.25,0.67,0,0.92
	c0.25,0.25,0.67,0.25,0.92,0c0.25-0.25,0.25-0.67,0-0.92C98.39,123.73,97.98,123.73,97.72,123.98z M92.98,128.29
	c0.27,0.27,0.71,0.27,0.98,0c0.27-0.27,0.27-0.71,0-0.98c-0.27-0.27-0.71-0.27-0.98,0C92.7,127.58,92.7,128.02,92.98,128.29z
	 M88.92,131.09c0.29-0.29,0.29-0.76,0-1.05c-0.29-0.29-0.76-0.29-1.05,0c-0.29,0.29-0.29,0.76,0,1.05
	C88.17,131.38,88.64,131.38,88.92,131.09z M83.59,133.29c0.31-0.31,0.3-0.8-0.01-1.11c-0.31-0.31-0.8-0.3-1.11,0.01
	c-0.31,0.31-0.3,0.8,0.01,1.11C82.79,133.6,83.29,133.59,83.59,133.29z M78.02,134.85c0.32-0.33,0.32-0.85-0.01-1.17
	c-0.33-0.32-0.85-0.32-1.17,0.01c-0.32,0.33-0.32,0.85,0.01,1.17C77.17,135.18,77.69,135.17,78.02,134.85z M72.25,135.75
	c0.34-0.34,0.34-0.9-0.01-1.24c-0.34-0.34-0.9-0.34-1.24,0.01c-0.34,0.34-0.34,0.9,0.01,1.24S71.91,136.09,72.25,135.75z
	 M65.02,134.66c-0.36,0.36-0.36,0.94,0.01,1.3c0.36,0.36,0.94,0.36,1.3-0.01c0.36-0.36,0.36-0.94-0.01-1.3
	C65.96,134.29,65.38,134.3,65.02,134.66z M60.43,135.45c0.38-0.38,0.37-0.99-0.01-1.37c-0.38-0.38-0.99-0.37-1.37,0.01
	c-0.38,0.38-0.37,0.99,0.01,1.37C59.45,135.83,60.06,135.83,60.43,135.45z M54.71,134.25c0.39-0.4,0.39-1.04-0.01-1.43
	c-0.4-0.39-1.04-0.39-1.43,0.01c-0.39,0.4-0.39,1.04,0.01,1.43C53.68,134.65,54.32,134.65,54.71,134.25z M49.22,132.39
	c0.41-0.41,0.41-1.08-0.01-1.49c-0.41-0.41-1.08-0.41-1.49,0.01c-0.41,0.41-0.41,1.08,0.01,1.49
	C48.14,132.81,48.81,132.8,49.22,132.39z M42.43,128.34c-0.43,0.43-0.43,1.13,0.01,1.56c0.43,0.43,1.13,0.43,1.56-0.01
	c0.43-0.43,0.43-1.13-0.01-1.56C43.56,127.9,42.86,127.9,42.43,128.34z M37.48,125.16c-0.45,0.45-0.44,1.18,0.01,1.62
	c0.45,0.45,1.18,0.44,1.62-0.01c0.45-0.45,0.44-1.18-0.01-1.62C38.65,124.71,37.92,124.71,37.48,125.16z M34.59,121.4
	c-0.47-0.46-1.22-0.46-1.69,0.01c-0.46,0.47-0.46,1.22,0.01,1.69c0.47,0.46,1.22,0.46,1.69-0.01
	C35.06,122.62,35.05,121.86,34.59,121.4z M30.55,118.88c0.48-0.49,0.48-1.27-0.01-1.75c-0.49-0.48-1.27-0.48-1.75,0.01
	c-0.48,0.49-0.48,1.27,0.01,1.75C29.28,119.37,30.07,119.37,30.55,118.88z M27.05,114.27c0.5-0.5,0.5-1.32-0.01-1.81
	c-0.5-0.5-1.32-0.49-1.81,0.01c-0.5,0.5-0.5,1.32,0.01,1.81C25.74,114.77,26.56,114.77,27.05,114.27z M22.26,109.3
	c0.52,0.52,1.36,0.51,1.88-0.01c0.52-0.52,0.51-1.36-0.01-1.88c-0.52-0.52-1.36-0.51-1.88,0.01S21.74,108.79,22.26,109.3z
	 M32.52,48.03c-0.71,0.72-0.7,1.87,0.01,2.58c0.72,0.71,1.87,0.7,2.58-0.01c0.71-0.72,0.7-1.87-0.01-2.58
	C34.39,47.31,33.23,47.32,32.52,48.03z M37.05,44.28c-0.73,0.73-0.72,1.92,0.01,2.65c0.73,0.73,1.92,0.72,2.65-0.01
	c0.73-0.73,0.72-1.92-0.01-2.65C38.96,43.54,37.78,43.54,37.05,44.28z M41.96,41.11c-0.75,0.75-0.74,1.97,0.01,2.71
	c0.75,0.75,1.97,0.74,2.71-0.01c0.75-0.75,0.74-1.97-0.01-2.71C43.92,40.35,42.7,40.36,41.96,41.11z M49.98,41.32
	c0.76-0.77,0.76-2.01-0.01-2.77c-0.77-0.76-2.01-0.76-2.77,0.01c-0.76,0.77-0.76,2.01,0.01,2.77S49.22,42.09,49.98,41.32z
	 M52.72,39.48c0.79,0.78,2.06,0.77,2.84-0.01c0.78-0.79,0.77-2.06-0.01-2.84c-0.79-0.78-2.06-0.77-2.84,0.01
	C51.93,37.43,51.93,38.7,52.72,39.48z M58.46,38.29c0.81,0.8,2.1,0.79,2.9-0.01c0.8-0.81,0.79-2.1-0.01-2.9
	c-0.81-0.8-2.1-0.79-2.9,0.01C57.65,36.2,57.65,37.5,58.46,38.29z M64.38,37.81c0.82,0.82,2.15,0.81,2.97-0.01s0.81-2.15-0.01-2.97
	c-0.82-0.82-2.15-0.81-2.97,0.01C63.55,35.66,63.55,36.99,64.38,37.81z M73.31,38.02c0.83-0.84,0.83-2.2-0.01-3.03
	c-0.84-0.83-2.2-0.83-3.03,0.01c-0.83,0.84-0.83,2.2,0.01,3.03C71.12,38.87,72.48,38.86,73.31,38.02z M76.02,35.86
	c-0.85,0.86-0.84,2.24,0.01,3.09c0.86,0.85,2.24,0.84,3.09-0.01c0.85-0.86,0.84-2.24-0.01-3.1C78.26,34.99,76.87,35,76.02,35.86z
	 M84.76,40.51c0.87-0.88,0.86-2.29-0.01-3.16c-0.88-0.87-2.29-0.86-3.16,0.01c-0.87,0.88-0.86,2.29,0.01,3.16
	C82.48,41.4,83.89,41.39,84.76,40.51z M86.92,42.74c0.89,0.89,2.34,0.88,3.22-0.01c0.89-0.89,0.88-2.34-0.01-3.22
	c-0.89-0.89-2.34-0.88-3.22,0.01C86.02,40.41,86.03,41.85,86.92,42.74z M95.22,42.26c-0.91-0.9-2.38-0.9-3.29,0.01
	c-0.9,0.91-0.9,2.38,0.01,3.29c0.91,0.9,2.38,0.9,3.29-0.01C96.14,44.63,96.13,43.16,95.22,42.26z M99.98,48.94
	c0.92-0.93,0.91-2.43-0.02-3.35c-0.93-0.92-2.43-0.91-3.35,0.02c-0.92,0.93-0.91,2.43,0.02,3.35
	C97.56,49.87,99.06,49.87,99.98,48.94z M100.89,49.48c-0.94,0.95-0.93,2.48,0.02,3.42c0.95,0.94,2.48,0.93,3.42-0.02
	c0.94-0.95,0.93-2.48-0.02-3.42C103.36,48.53,101.83,48.54,100.89,49.48z M97.16,116.1c0.21-0.21,0.21-0.55-0.01-0.76
	c-0.21-0.21-0.55-0.21-0.76,0.01c-0.21,0.21-0.21,0.55,0.01,0.76C96.62,116.31,96.96,116.31,97.16,116.1z M92.61,118.93
	c-0.22,0.23-0.22,0.59,0.01,0.82c0.23,0.22,0.59,0.22,0.82-0.01c0.22-0.23,0.22-0.59-0.01-0.82
	C93.2,118.7,92.83,118.71,92.61,118.93z M89.3,122.04c-0.24-0.24-0.64-0.24-0.87,0.01c-0.24,0.24-0.24,0.64,0.01,0.87
	c0.24,0.24,0.64,0.24,0.87-0.01C89.55,122.67,89.55,122.28,89.3,122.04z M84.85,125.58c0.26-0.26,0.25-0.68-0.01-0.93
	c-0.26-0.25-0.68-0.25-0.93,0.01c-0.26,0.26-0.25,0.68,0.01,0.93C84.18,125.84,84.6,125.84,84.85,125.58z M79.09,126.72
	c-0.27,0.28-0.27,0.72,0.01,0.99c0.28,0.27,0.72,0.27,0.99-0.01c0.27-0.28,0.27-0.72-0.01-0.99
	C79.81,126.44,79.37,126.44,79.09,126.72z M75.07,128.2c-0.29-0.29-0.76-0.28-1.05,0.01c-0.29,0.29-0.28,0.76,0.01,1.05
	c0.29,0.29,0.76,0.28,1.05-0.01C75.36,128.96,75.36,128.49,75.07,128.2z M68.74,129.09c-0.3,0.31-0.3,0.8,0.01,1.1
	c0.31,0.3,0.8,0.3,1.1-0.01c0.3-0.31,0.3-0.8-0.01-1.1C69.53,128.78,69.04,128.79,68.74,129.09z M63.29,129.34
	c-0.32,0.32-0.31,0.84,0.01,1.16c0.32,0.32,0.84,0.31,1.16-0.01c0.32-0.32,0.31-0.84-0.01-1.16
	C64.12,129.01,63.61,129.02,63.29,129.34z M59.07,130.13c0.33-0.34,0.33-0.88-0.01-1.22c-0.34-0.33-0.88-0.33-1.22,0.01
	c-0.33,0.34-0.33,0.88,0.01,1.22C58.19,130.47,58.74,130.47,59.07,130.13z M53.86,129.12c0.35-0.35,0.34-0.93-0.01-1.27
	c-0.36-0.35-0.93-0.34-1.27,0.01c-0.35,0.35-0.34,0.93,0.01,1.27C52.94,129.48,53.51,129.48,53.86,129.12z M48.87,127.51
	c0.36-0.37,0.36-0.97-0.01-1.33c-0.37-0.36-0.97-0.36-1.33,0.01c-0.36,0.37-0.36,0.97,0.01,1.33
	C47.91,127.88,48.5,127.88,48.87,127.51z M42.74,123.94c-0.38,0.39-0.37,1.01,0.01,1.39c0.39,0.38,1.01,0.37,1.39-0.01
	c0.38-0.39,0.37-1.01-0.01-1.39C43.74,123.55,43.12,123.55,42.74,123.94z M38.27,121.15c-0.4,0.4-0.39,1.05,0.01,1.45
	c0.4,0.4,1.05,0.39,1.45-0.01c0.4-0.4,0.39-1.05-0.01-1.45C39.31,120.74,38.66,120.74,38.27,121.15z M35.64,117.83
	c-0.42-0.41-1.09-0.41-1.5,0.01c-0.41,0.42-0.41,1.09,0.01,1.5c0.42,0.41,1.09,0.41,1.5-0.01
	C36.07,118.91,36.06,118.24,35.64,117.83z M32.01,115.62c0.43-0.43,0.42-1.13-0.01-1.56c-0.43-0.43-1.13-0.42-1.56,0.01
	c-0.43,0.43-0.42,1.13,0.01,1.56S31.58,116.05,32.01,115.62z M28.84,111.52c0.44-0.45,0.44-1.17-0.01-1.62
	c-0.45-0.44-1.17-0.44-1.62,0.01s-0.44,1.17,0.01,1.62C27.67,111.98,28.39,111.97,28.84,111.52z M24.49,105.42
	c-0.46,0.47-0.45,1.22,0.01,1.67c0.47,0.46,1.22,0.45,1.67-0.01c0.46-0.47,0.45-1.22-0.01-1.67
	C25.69,104.94,24.94,104.95,24.49,105.42z M22.32,102.34c0.48,0.47,1.26,0.47,1.73-0.02c0.47-0.48,0.47-1.26-0.02-1.73
	c-0.48-0.47-1.26-0.47-1.73,0.02C21.83,101.09,21.84,101.87,22.32,102.34z M30.14,55.62c-0.61,0.63-0.61,1.63,0.02,2.24
	c0.63,0.61,1.63,0.61,2.24-0.02c0.61-0.63,0.61-1.63-0.02-2.24C31.76,54.98,30.76,54.99,30.14,55.62z M36.12,54.14
	c0.63-0.64,0.62-1.67-0.02-2.3c-0.64-0.63-1.67-0.62-2.3,0.02c-0.63,0.64-0.62,1.67,0.02,2.3C34.46,54.79,35.49,54.78,36.12,54.14z
	 M37.87,48.56c-0.65,0.66-0.64,1.71,0.02,2.36c0.66,0.65,1.71,0.64,2.36-0.02c0.65-0.66,0.64-1.71-0.02-2.36
	C39.57,47.89,38.52,47.9,37.87,48.56z M42.3,45.77c-0.66,0.67-0.65,1.75,0.02,2.42c0.67,0.66,1.75,0.65,2.42-0.02
	c0.66-0.67,0.65-1.75-0.02-2.42C44.04,45.09,42.96,45.09,42.3,45.77z M49.53,45.98c0.68-0.69,0.67-1.8-0.02-2.47
	c-0.69-0.68-1.8-0.67-2.47,0.02c-0.68,0.69-0.67,1.8,0.02,2.47C47.75,46.67,48.86,46.66,49.53,45.98z M52.07,44.39
	c0.7,0.69,1.84,0.68,2.53-0.02c0.69-0.7,0.68-1.84-0.02-2.53c-0.7-0.69-1.84-0.68-2.53,0.02C51.35,42.57,51.36,43.7,52.07,44.39z
	 M59.86,40.79c-0.72-0.71-1.88-0.7-2.59,0.02c-0.71,0.72-0.7,1.88,0.02,2.59c0.72,0.71,1.88,0.7,2.59-0.02
	C60.59,42.66,60.58,41.5,59.86,40.79z M65.35,43.03c0.72-0.74,0.71-1.92-0.02-2.64c-0.74-0.72-1.92-0.71-2.64,0.02
	c-0.72,0.74-0.71,1.92,0.02,2.64C63.44,43.78,64.63,43.77,65.35,43.03z M70.78,43.34c0.74-0.75,0.73-1.96-0.02-2.7
	s-1.96-0.73-2.7,0.02c-0.74,0.75-0.73,1.96,0.02,2.7C68.84,44.11,70.05,44.1,70.78,43.34z M76.05,44.3c0.75-0.77,0.74-2-0.02-2.76
	c-0.77-0.75-2-0.74-2.76,0.02c-0.75,0.77-0.74,2,0.02,2.76C74.07,45.08,75.3,45.07,76.05,44.3z M81.12,45.86
	c0.77-0.78,0.76-2.04-0.03-2.81c-0.78-0.77-2.04-0.76-2.81,0.03c-0.77,0.78-0.76,2.04,0.03,2.81
	C79.09,46.65,80.35,46.64,81.12,45.86z M85.92,47.99c0.79-0.8,0.77-2.09-0.03-2.87c-0.8-0.79-2.09-0.77-2.87,0.03
	c-0.79,0.8-0.77,2.09,0.03,2.87C83.85,48.8,85.14,48.79,85.92,47.99z M90.41,47.73c-0.82-0.8-2.13-0.79-2.93,0.03
	s-0.79,2.13,0.03,2.93c0.82,0.8,2.13,0.79,2.93-0.03C91.24,49.84,91.22,48.53,90.41,47.73z M94.58,50.85
	c-0.83-0.82-2.17-0.81-2.99,0.03c-0.82,0.83-0.81,2.17,0.03,2.99c0.83,0.82,2.17,0.81,2.99-0.03S95.41,51.67,94.58,50.85z
	 M95.32,54.48c-0.83,0.85-0.82,2.21,0.03,3.04c0.85,0.83,2.21,0.82,3.04-0.03c0.83-0.85,0.82-2.21-0.03-3.04
	C97.51,53.62,96.15,53.63,95.32,54.48z M91.39,111.23c0.18-0.19,0.18-0.49-0.01-0.67c-0.19-0.18-0.49-0.18-0.67,0.01
	c-0.18,0.19-0.18,0.49,0.01,0.67C90.91,111.42,91.21,111.42,91.39,111.23z M88.22,114.59c0.2-0.2,0.19-0.52-0.01-0.72
	c-0.2-0.2-0.52-0.19-0.72,0.01c-0.2,0.2-0.19,0.52,0.01,0.72C87.7,114.8,88.02,114.79,88.22,114.59z M84.67,117.55
	c0.21-0.22,0.2-0.56-0.01-0.77c-0.22-0.21-0.56-0.2-0.77,0.01c-0.21,0.22-0.2,0.56,0.01,0.77
	C84.12,117.77,84.46,117.76,84.67,117.55z M80.78,120.07c0.22-0.23,0.22-0.6-0.01-0.82c-0.23-0.22-0.6-0.22-0.82,0.01
	c-0.22,0.23-0.22,0.6,0.01,0.82C80.19,120.3,80.56,120.3,80.78,120.07z M76.59,122.11c0.24-0.24,0.23-0.63-0.01-0.87
	c-0.24-0.24-0.63-0.23-0.87,0.01c-0.24,0.24-0.23,0.63,0.01,0.87C75.97,122.36,76.36,122.36,76.59,122.11z M71.21,122.74
	c-0.25,0.26-0.24,0.67,0.01,0.92c0.26,0.25,0.67,0.24,0.92-0.01c0.25-0.26,0.24-0.67-0.01-0.92
	C71.87,122.48,71.46,122.48,71.21,122.74z M67.46,124.63c0.26-0.27,0.26-0.7-0.01-0.97c-0.27-0.26-0.7-0.26-0.97,0.01
	c-0.26,0.27-0.26,0.7,0.01,0.97C66.76,124.91,67.19,124.9,67.46,124.63z M61.55,124.02c-0.28,0.29-0.27,0.74,0.01,1.02
	c0.29,0.28,0.74,0.27,1.02-0.01c0.28-0.29,0.27-0.74-0.01-1.02C62.28,123.73,61.83,123.74,61.55,124.02z M57.69,123.74
	c-0.3-0.29-0.78-0.28-1.07,0.02c-0.29,0.3-0.28,0.78,0.02,1.07c0.3,0.29,0.78,0.28,1.07-0.02C58,124.51,57.99,124.03,57.69,123.74z
	 M53.01,123.99c0.3-0.31,0.3-0.81-0.02-1.12c-0.31-0.3-0.81-0.3-1.12,0.02c-0.3,0.31-0.3,0.81,0.02,1.12
	C52.2,124.31,52.7,124.31,53.01,123.99z M48.52,122.63c0.32-0.33,0.31-0.85-0.02-1.17c-0.33-0.32-0.85-0.31-1.17,0.02
	c-0.32,0.33-0.31,0.85,0.02,1.17C47.68,122.96,48.2,122.96,48.52,122.63z M43.05,119.54c-0.33,0.34-0.32,0.89,0.02,1.22
	c0.34,0.33,0.89,0.32,1.22-0.02c0.33-0.34,0.32-0.89-0.02-1.22C43.93,119.19,43.38,119.2,43.05,119.54z M39.05,117.13
	c-0.35,0.36-0.34,0.92,0.02,1.27c0.36,0.35,0.92,0.34,1.27-0.02c0.35-0.36,0.34-0.92-0.02-1.27
	C39.97,116.77,39.4,116.78,39.05,117.13z M36.72,115.57c0.36-0.37,0.35-0.96-0.02-1.32c-0.37-0.36-0.96-0.35-1.32,0.02
	c-0.36,0.37-0.35,0.96,0.02,1.32C35.77,115.95,36.36,115.94,36.72,115.57z M33.47,112.36c0.37-0.38,0.36-1-0.02-1.37
	c-0.38-0.37-1-0.36-1.37,0.02c-0.37,0.38-0.36,1,0.02,1.37C32.48,112.75,33.1,112.74,33.47,112.36z M30.62,108.77
	c0.39-0.4,0.38-1.03-0.02-1.42c-0.4-0.39-1.03-0.38-1.42,0.02c-0.39,0.4-0.38,1.03,0.02,1.42C29.6,109.18,30.23,109.17,30.62,108.77
	z M28.21,104.86c0.4-0.41,0.39-1.07-0.02-1.47c-0.41-0.4-1.07-0.39-1.47,0.02c-0.4,0.41-0.39,1.07,0.02,1.47
	C27.15,105.28,27.81,105.27,28.21,104.86z M24.75,100.66c0.43,0.41,1.11,0.4,1.52-0.02c0.41-0.43,0.4-1.11-0.02-1.52
	c-0.43-0.41-1.11-0.4-1.52,0.02C24.32,99.57,24.33,100.25,24.75,100.66z M24.86,96.17c0.43-0.44,0.42-1.14-0.02-1.57
	c-0.44-0.43-1.14-0.42-1.57,0.02c-0.43,0.44-0.42,1.14,0.02,1.57C23.73,96.62,24.43,96.61,24.86,96.17z M23.99,91.47
	c0.44-0.45,0.43-1.18-0.02-1.62c-0.45-0.44-1.18-0.43-1.62,0.02c-0.44,0.45-0.43,1.18,0.02,1.62
	C22.82,91.93,23.55,91.92,23.99,91.47z M23.71,86.59c0.45-0.47,0.44-1.22-0.02-1.67c-0.47-0.45-1.22-0.44-1.67,0.02
	s-0.44,1.22,0.02,1.67C22.51,87.07,23.26,87.06,23.71,86.59z M24.6,70.79c-0.5,0.51-0.48,1.32,0.03,1.82
	c0.51,0.5,1.32,0.48,1.82-0.03c0.5-0.51,0.48-1.32-0.03-1.82C25.91,70.27,25.1,70.28,24.6,70.79z M26.54,66.54
	c-0.51,0.52-0.5,1.36,0.03,1.87c0.52,0.51,1.36,0.5,1.87-0.03c0.51-0.52,0.5-1.36-0.03-1.87C27.89,66,27.05,66.02,26.54,66.54z
	 M28.98,64.5c0.54,0.52,1.4,0.51,1.92-0.03c0.52-0.54,0.51-1.4-0.03-1.92c-0.54-0.52-1.4-0.51-1.92,0.03S28.45,63.98,28.98,64.5z
	 M33.78,58.92c-0.55-0.54-1.43-0.52-1.97,0.03c-0.54,0.55-0.52,1.43,0.03,1.97c0.55,0.54,1.43,0.52,1.97-0.03
	C34.34,60.34,34.33,59.46,33.78,58.92z M37.09,55.66c-0.57-0.55-1.47-0.54-2.02,0.03c-0.55,0.57-0.54,1.47,0.03,2.02
	c0.57,0.55,1.47,0.54,2.02-0.03C37.67,57.11,37.65,56.21,37.09,55.66z M40.76,52.81c-0.58-0.56-1.51-0.55-2.07,0.03
	s-0.55,1.51,0.03,2.07c0.58,0.56,1.51,0.55,2.07-0.03S41.34,53.37,40.76,52.81z M42.64,50.43c-0.58,0.59-0.56,1.54,0.03,2.12
	c0.59,0.58,1.54,0.56,2.12-0.03c0.58-0.59,0.56-1.54-0.03-2.12C44.17,49.82,43.22,49.83,42.64,50.43z M49.09,50.64
	c0.59-0.61,0.58-1.58-0.03-2.17c-0.61-0.59-1.58-0.58-2.17,0.03c-0.59,0.61-0.58,1.58,0.03,2.17C47.53,51.26,48.5,51.24,49.09,50.64
	z M51.42,49.31c0.62,0.6,1.62,0.59,2.22-0.03c0.6-0.62,0.59-1.62-0.03-2.22c-0.62-0.6-1.62-0.59-2.22,0.03
	C50.78,47.71,50.8,48.7,51.42,49.31z M56.1,46.24c-0.62,0.64-0.6,1.65,0.03,2.27c0.64,0.62,1.65,0.6,2.27-0.03
	c0.62-0.64,0.6-1.65-0.03-2.27C57.74,45.58,56.72,45.6,56.1,46.24z M61,45.98c-0.63,0.65-0.62,1.69,0.03,2.32
	c0.65,0.63,1.69,0.62,2.32-0.03c0.63-0.65,0.62-1.69-0.03-2.32C62.67,45.31,61.63,45.33,61,45.98z M68.26,48.67
	c0.64-0.66,0.63-1.73-0.03-2.37c-0.66-0.65-1.73-0.63-2.37,0.03c-0.64,0.66-0.63,1.73,0.03,2.37S67.61,49.33,68.26,48.67z
	 M72.94,47.24c-0.68-0.66-1.76-0.64-2.42,0.04c-0.66,0.68-0.64,1.76,0.04,2.42c0.68,0.66,1.76,0.64,2.42-0.04
	C73.64,48.98,73.62,47.9,72.94,47.24z M77.47,51.2c0.67-0.69,0.66-1.8-0.04-2.47c-0.69-0.67-1.8-0.66-2.47,0.04
	c-0.67,0.69-0.66,1.8,0.04,2.47C75.69,51.91,76.8,51.89,77.47,51.2z M81.7,53.25c0.69-0.71,0.67-1.83-0.04-2.52
	c-0.71-0.69-1.83-0.67-2.52,0.04c-0.69,0.71-0.67,1.83,0.04,2.52C79.89,53.97,81.02,53.96,81.7,53.25z M85.63,55.78
	c0.7-0.72,0.68-1.87-0.04-2.57c-0.72-0.7-1.87-0.68-2.57,0.04s-0.68,1.87,0.04,2.57C83.78,56.51,84.93,56.5,85.63,55.78z
	 M89.23,58.74c0.71-0.73,0.7-1.91-0.04-2.62c-0.73-0.71-1.91-0.7-2.62,0.04c-0.71,0.73-0.7,1.91,0.04,2.62
	C87.34,59.49,88.52,59.48,89.23,58.74z M92.45,62.1c0.73-0.75,0.71-1.94-0.04-2.67c-0.75-0.73-1.94-0.71-2.67,0.04
	c-0.73,0.75-0.71,1.94,0.04,2.67C90.53,62.87,91.72,62.85,92.45,62.1z M121.3,84.32c0-6.52-3.21-10.4-8.96-10.4
	c-2.3,0-5.8,1.29-6.95,4.12v-3.55h-5.56v22.38h5.56V84.99c0-4.31,3.16-5.8,5.7-5.8c2.49,0,4.65,1.92,4.65,5.51v12.17h5.56V84.32z
	 M95.95,85.66c0,7.09-5.56,11.79-11.93,11.79c-6.37,0-11.89-4.7-11.89-11.79c0-7.09,5.51-11.74,11.89-11.74
	C90.39,73.92,95.95,78.57,95.95,85.66z M90.34,85.66c0-3.83-2.88-6.57-6.33-6.57c-3.45,0-6.28,2.73-6.28,6.57
	c0,3.93,2.83,6.61,6.28,6.61C87.46,92.28,90.34,89.59,90.34,85.66z M181.72,81.29c2.2,0,4.02-1.76,4.02-3.96
	c0-2.2-1.82-4.02-4.02-4.02s-3.96,1.82-3.96,4.02C177.76,79.52,179.52,81.29,181.72,81.29z M189.44,96.88H195V74.49h-5.56V96.88z
	 M164.57,74.49l7.33,10.16l-8.82,12.22h6.52l5.46-7.72l5.42,7.72h6.57l-15.91-22.38H164.57z M158.35,89.54l3.74,2.83
	c-2.06,3.26-6.04,5.08-10.11,5.08c-6.66,0-11.74-4.79-11.74-11.79c0-7.14,5.32-11.74,11.74-11.74c6.37,0,11.41,4.55,11.41,11.55
	c0,0.62-0.05,1.34-0.1,2.16h-17.35c0.62,3.12,3.02,4.79,6.37,4.79C154.71,92.42,157.06,91.37,158.35,89.54z M145.94,83.74h11.93
	c-0.34-3.07-2.73-4.89-5.85-4.89C149.05,78.86,146.61,80.34,145.94,83.74z M210.89,83.89l-3.59-0.96c-1.29-0.29-2.4-0.96-2.4-2.11
	c0-1.39,1.2-2.4,2.92-2.4c1.58,0,2.97,0.96,2.97,2.49h5.32c0.05-4.98-4.46-7-8.44-7c-4.89,0-8.34,3.16-8.34,6.66
	c0,2.83,1.29,5.51,6.33,6.85l2.97,0.77c1.68,0.38,2.64,0.96,2.64,2.2c0,1.44-1.44,2.54-3.64,2.54c-2.35,0-3.69-1.44-3.69-2.97h-5.22
	c0.1,4.79,4.55,7.48,9.01,7.48c4.55,0,9.11-2.49,9.11-7.05C216.83,88.35,215.92,85.18,210.89,83.89z M66.92,90
	c-1.14,1.39-3.06,2.27-5.07,2.27c-3.88,0.02-6.67-2.85-6.69-6.59c-0.02-3.79,2.75-6.58,6.64-6.59c2.01-0.01,3.93,0.85,5.09,2.23
	l3.92-3.13c-2.07-2.58-5.24-4.29-9.12-4.28c-6.47,0.03-12.15,4.7-12.13,11.79c0.03,7.09,5.75,11.77,12.22,11.74
	c3.88-0.02,7.04-1.75,9.09-4.35L66.92,90z M133,87.24V78.9h5.34v-4.41H133v-5.99h-5.56v5.99h-4.41v4.41h4.41v8.53
	c0,6.23,2.4,9.44,8.67,9.44h2.7V91.7h-2.13C133.76,91.7,132.95,89.78,133,87.24z"/>
</svg>
