<?xml version="1.0" encoding="utf-8"?>
<!-- Generator: Adobe Illustrator 27.3.1, SVG Export Plug-In . SVG Version: 6.00 Build 0)  -->
<svg version="1.1" id="Layer_1" xmlns="http://www.w3.org/2000/svg" xmlns:xlink="http://www.w3.org/1999/xlink" x="0px" y="0px"
	 viewBox="0 0 331.83 41.33" style="enable-background:new 0 0 331.83 41.33;" xml:space="preserve">
<style type="text/css">
	.st0{fill:#F00078;}
</style>
<g>
	<path d="M52.63,19.46c0,8.05-6.31,13.37-13.54,13.37c-7.23,0-13.48-5.33-13.48-13.37c0-8.05,6.25-13.32,13.48-13.32
		C46.32,6.14,52.63,11.41,52.63,19.46z M46.27,19.46c0-4.35-3.26-7.45-7.18-7.45c-3.91,0-7.12,3.1-7.12,7.45
		c0,4.46,3.21,7.5,7.12,7.5C43,26.96,46.27,23.92,46.27,19.46z M13.95,26.95c-4.4,0.02-7.57-3.23-7.59-7.47
		c-0.02-4.29,3.12-7.46,7.53-7.48c2.28-0.01,4.46,0.96,5.77,2.53l4.44-3.55c-2.35-2.93-5.95-4.87-10.35-4.85
		C6.42,6.16-0.03,11.46,0,19.51c0.03,8.05,6.52,13.35,13.86,13.32c4.4-0.02,7.98-1.99,10.31-4.93l-4.47-3.52
		C18.4,25.96,16.23,26.94,13.95,26.95z M71.22,6.14c-2.61,0-6.58,1.47-7.88,4.68V6.79h-6.31v25.39h6.31V18.7
		c0-4.89,3.59-6.58,6.47-6.58c2.83,0,5.27,2.17,5.27,6.25v13.81h6.31V17.94C81.39,10.54,77.74,6.14,71.22,6.14z M158.68,32.18h6.31
		V6.79h-6.31V32.18z M183.01,17.45l-4.08-1.09c-1.47-0.33-2.72-1.09-2.72-2.39c0-1.58,1.36-2.72,3.32-2.72
		c1.79,0,3.37,1.09,3.37,2.83h6.03c0.05-5.65-5.06-7.94-9.57-7.94c-5.55,0-9.46,3.59-9.46,7.56c0,3.21,1.47,6.25,7.18,7.77
		l3.37,0.87c1.9,0.43,2.99,1.09,2.99,2.5c0,1.63-1.63,2.88-4.13,2.88c-2.66,0-4.19-1.63-4.19-3.37h-5.93
		c0.11,5.44,5.16,8.48,10.22,8.48c5.16,0,10.33-2.83,10.33-7.99C189.75,22.5,188.71,18.92,183.01,17.45z M94.66,21.25v-9.46h6.06v-5
		h-6.06V0h-6.31v6.79h-5v5h5v9.68c0,7.07,2.72,10.71,9.84,10.71h3.07v-5.87h-2.41C95.53,26.31,94.6,24.13,94.66,21.25z M130.47,6.79
		l8.32,11.53l-10,13.86h7.39l6.2-8.75l6.14,8.75h7.45L137.92,6.79H130.47z M123.42,23.86l4.24,3.21c-2.34,3.7-6.85,5.76-11.47,5.76
		c-7.56,0-13.32-5.44-13.32-13.37c0-8.1,6.03-13.32,13.32-13.32c7.23,0,12.94,5.16,12.94,13.1c0,0.71-0.05,1.52-0.11,2.45h-19.68
		c0.71,3.53,3.43,5.44,7.23,5.44C119.28,27.12,121.95,25.93,123.42,23.86z M109.33,17.28h13.54c-0.38-3.48-3.1-5.55-6.63-5.55
		C112.87,11.74,110.1,13.42,109.33,17.28z"/>
	<path class="st0" d="M203.29,12.89h3.2v19.29h-3.2V12.89z M204.95,5.39c-0.61,0-1.13,0.21-1.55,0.63
		c-0.42,0.42-0.63,0.94-0.63,1.55c0,0.61,0.21,1.13,0.63,1.55c0.42,0.42,0.94,0.63,1.55,0.63c0.59,0,1.08-0.21,1.5-0.63
		c0.41-0.42,0.62-0.94,0.62-1.55c0-0.61-0.21-1.13-0.62-1.55C206.03,5.6,205.53,5.39,204.95,5.39z M237.64,13.47
		c-1.17-0.62-2.51-0.93-4.01-0.93c-1.53,0-2.91,0.38-4.15,1.13c-1.24,0.75-2.14,1.81-2.68,3.17c-0.61-1.41-1.54-2.48-2.78-3.2
		c-1.24-0.73-2.68-1.09-4.29-1.09c-1.29,0-2.47,0.27-3.54,0.81c-1.07,0.54-1.92,1.31-2.55,2.32v-2.78h-3.2v19.29h3.2V21.55
		c0-2.02,0.49-3.56,1.48-4.63c0.99-1.07,2.31-1.6,3.98-1.6c1.62,0,2.9,0.51,3.85,1.53c0.95,1.02,1.43,2.49,1.43,4.42v10.91h3.17
		V21.55c0-2.02,0.49-3.56,1.48-4.63c0.99-1.07,2.31-1.6,3.98-1.6c1.62,0,2.9,0.51,3.85,1.53c0.95,1.02,1.43,2.49,1.43,4.42v10.91
		h3.17V20.81c0-1.78-0.34-3.3-1.02-4.54C239.74,15.03,238.81,14.09,237.64,13.47z M263.55,17.27c0.8,1.49,1.2,3.22,1.2,5.19
		c0,1.95-0.4,3.68-1.2,5.21c-0.8,1.53-1.9,2.71-3.29,3.55s-2.95,1.27-4.66,1.27c-1.64,0-3.09-0.37-4.35-1.11
		c-1.26-0.74-2.21-1.66-2.87-2.76v12.71h-3.2V12.89h3.2v3.55c0.63-1.1,1.58-2.02,2.83-2.76c1.26-0.74,2.72-1.11,4.38-1.11
		c1.71,0,3.27,0.41,4.66,1.23C261.65,14.63,262.75,15.78,263.55,17.27z M261.47,22.47c0-1.45-0.29-2.72-0.88-3.8
		c-0.59-1.08-1.38-1.9-2.38-2.46c-1-0.56-2.09-0.84-3.29-0.84c-1.17,0-2.26,0.29-3.26,0.86c-1,0.58-1.8,1.41-2.39,2.5
		c-0.6,1.09-0.9,2.35-0.9,3.78c0,1.46,0.3,2.73,0.9,3.82c0.6,1.09,1.4,1.92,2.39,2.5c1,0.58,2.08,0.86,3.26,0.86
		c1.2,0,2.29-0.29,3.29-0.86c1-0.57,1.79-1.41,2.38-2.5C261.18,25.23,261.47,23.94,261.47,22.47z M282.75,12.89h3.24v19.29h-3.24
		v-3.59c-0.63,1.13-1.58,2.06-2.83,2.8c-1.26,0.74-2.72,1.11-4.38,1.11c-1.71,0-3.26-0.42-4.65-1.27c-1.38-0.84-2.48-2.03-3.27-3.55
		c-0.8-1.53-1.2-3.26-1.2-5.21c0-1.97,0.4-3.7,1.2-5.19c0.8-1.49,1.89-2.65,3.29-3.47c1.4-0.82,2.95-1.23,4.66-1.23
		c1.69,0,3.16,0.36,4.4,1.09c1.24,0.73,2.17,1.64,2.78,2.75V12.89z M282.75,22.5c0-1.45-0.29-2.72-0.88-3.8
		c-0.59-1.08-1.38-1.91-2.38-2.48c-1-0.57-2.09-0.86-3.29-0.86c-1.2,0-2.29,0.28-3.27,0.84c-0.99,0.56-1.77,1.38-2.36,2.46
		c-0.59,1.08-0.88,2.35-0.88,3.8c0,1.48,0.29,2.76,0.88,3.85c0.59,1.09,1.37,1.92,2.36,2.5c0.99,0.58,2.08,0.86,3.27,0.86
		c1.2,0,2.29-0.29,3.29-0.86c1-0.57,1.79-1.41,2.38-2.5C282.45,25.23,282.75,23.96,282.75,22.5z M298.23,15.28
		c1.41,0,2.59,0.34,3.54,1.02c0.95,0.68,1.59,1.61,1.92,2.78h3.45c-0.49-2.04-1.51-3.64-3.04-4.79c-1.54-1.15-3.49-1.72-5.86-1.72
		c-1.83,0-3.46,0.41-4.87,1.23c-1.42,0.82-2.53,1.98-3.33,3.47c-0.8,1.49-1.2,3.23-1.2,5.23c0,2.02,0.4,3.78,1.2,5.28
		c0.8,1.5,1.91,2.66,3.33,3.48c1.42,0.82,3.04,1.23,4.87,1.23c2.32,0,4.26-0.59,5.81-1.78c1.55-1.18,2.58-2.76,3.1-4.73h-3.45
		c-0.35,1.22-1,2.16-1.94,2.82c-0.94,0.66-2.11,0.99-3.52,0.99c-1.83,0-3.31-0.63-4.43-1.9c-1.13-1.27-1.69-3.06-1.69-5.39
		c0-2.3,0.56-4.08,1.69-5.33C294.93,15.91,296.4,15.28,298.23,15.28z M313.51,8.03h-3.2v4.86h-2.5v2.64h2.5V26.9
		c0,1.88,0.45,3.23,1.34,4.05c0.89,0.82,2.23,1.23,4.01,1.23h2.89v-2.71h-2.36c-0.99,0-1.68-0.19-2.08-0.58
		c-0.4-0.39-0.6-1.05-0.6-1.99V15.53h5.03v-2.64h-5.03V8.03z M327.87,10.46l1.36,2.27h-0.85l-1.29-2.22h-0.86v2.22h-0.71V7.31h1.75
		c0.41,0,0.76,0.07,1.04,0.21c0.28,0.14,0.49,0.33,0.63,0.57c0.14,0.24,0.21,0.51,0.21,0.82c0,0.37-0.11,0.7-0.32,0.99
		C328.62,10.18,328.3,10.36,327.87,10.46z M327.28,9.94c0.38,0,0.67-0.09,0.86-0.28c0.19-0.19,0.29-0.44,0.29-0.76
		c0-0.32-0.09-0.57-0.28-0.75c-0.19-0.18-0.48-0.26-0.87-0.26h-1.04v2.05H327.28z M331.83,10.02c0,0.88-0.19,1.67-0.56,2.36
		c-0.37,0.69-0.9,1.23-1.57,1.62c-0.68,0.39-1.45,0.58-2.31,0.58c-0.87,0-1.65-0.19-2.32-0.58c-0.68-0.39-1.2-0.93-1.58-1.62
		c-0.38-0.69-0.56-1.47-0.56-2.36c0-0.88,0.19-1.67,0.56-2.36c0.38-0.69,0.9-1.23,1.58-1.62c0.68-0.39,1.45-0.58,2.32-0.58
		c0.86,0,1.63,0.19,2.31,0.58c0.68,0.39,1.2,0.93,1.57,1.62C331.65,8.35,331.83,9.14,331.83,10.02z M331.28,10.02
		c0-0.8-0.16-1.51-0.47-2.12c-0.32-0.61-0.77-1.08-1.35-1.42c-0.59-0.34-1.27-0.51-2.06-0.51c-0.8,0-1.49,0.17-2.08,0.51
		c-0.59,0.34-1.04,0.81-1.36,1.42c-0.32,0.61-0.47,1.31-0.47,2.12c0,0.8,0.16,1.5,0.47,2.11c0.32,0.61,0.77,1.09,1.36,1.43
		c0.59,0.34,1.28,0.51,2.08,0.51c0.79,0,1.47-0.17,2.06-0.51c0.59-0.34,1.04-0.82,1.35-1.43C331.12,11.52,331.28,10.81,331.28,10.02
		z M149.93,14.5c2.5,0,4.56-2,4.56-4.5c0-2.5-2.06-4.56-4.56-4.56c-2.5,0-4.5,2.06-4.5,4.56C145.43,12.5,147.43,14.5,149.93,14.5z"
		/>
</g>
</svg>
