<?xml version="1.0" encoding="utf-8"?>
<!-- Generator: Adobe Illustrator 27.3.1, SVG Export Plug-In . SVG Version: 6.00 Build 0)  -->
<svg version="1.1" id="Layer_1" xmlns="http://www.w3.org/2000/svg" xmlns:xlink="http://www.w3.org/1999/xlink" x="0px" y="0px"
	 viewBox="0 0 320.03 41.62" style="enable-background:new 0 0 320.03 41.62;" xml:space="preserve">
<style type="text/css">
	.st0{fill:#1EAA32;}
</style>
<g>
	<path class="st0" d="M149.7,14.47c2.49,0,4.55-2,4.55-4.49c0-2.49-2.06-4.55-4.55-4.55c-2.49,0-4.49,2.06-4.49,4.55
		C145.21,12.48,147.21,14.47,149.7,14.47z M301.64,8.02h-3.2v4.85h-2.5v2.64h2.5v11.35c0,1.87,0.44,3.22,1.34,4.04
		c0.89,0.82,2.23,1.23,4.01,1.23h2.88v-2.71h-2.35c-0.98,0-1.68-0.19-2.07-0.58c-0.4-0.39-0.6-1.05-0.6-1.99V15.51h5.03v-2.64h-5.03
		V8.02z M290.62,13.45c-1.17-0.62-2.48-0.93-3.94-0.93c-1.38,0-2.63,0.27-3.74,0.81c-1.11,0.54-1.99,1.3-2.62,2.28V6.12h-3.2v26.01
		h3.2V21.48c0-2.01,0.5-3.55,1.49-4.6c1-1.05,2.34-1.58,4.02-1.58c1.66,0,2.98,0.51,3.94,1.53c0.96,1.02,1.44,2.49,1.44,4.41v10.9
		h3.16V20.78c0-1.78-0.33-3.29-1-4.53C292.72,15,291.8,14.07,290.62,13.45z M270.02,12.87h3.23v19.68c0,1.76-0.38,3.32-1.12,4.69
		c-0.75,1.37-1.82,2.44-3.22,3.22c-1.39,0.77-3.02,1.16-4.87,1.16c-2.53,0-4.64-0.6-6.33-1.79c-1.69-1.19-2.68-2.82-2.99-4.89h3.16
		c0.35,1.17,1.08,2.11,2.18,2.83c1.1,0.71,2.42,1.07,3.97,1.07c1.76,0,3.19-0.55,4.31-1.65c1.11-1.1,1.67-2.65,1.67-4.64v-4.04
		c-0.63,1.12-1.57,2.06-2.81,2.81c-1.24,0.75-2.69,1.12-4.36,1.12c-1.71,0-3.26-0.42-4.66-1.27c-1.39-0.84-2.49-2.03-3.29-3.55
		c-0.8-1.52-1.19-3.26-1.19-5.2c0-1.97,0.4-3.7,1.19-5.18c0.8-1.49,1.89-2.64,3.29-3.46c1.39-0.82,2.95-1.23,4.66-1.23
		c1.66,0,3.12,0.36,4.38,1.09c1.25,0.73,2.18,1.64,2.79,2.74V12.87z M270.02,22.46c0-1.45-0.29-2.72-0.88-3.8
		c-0.59-1.08-1.38-1.9-2.37-2.48c-1-0.57-2.09-0.86-3.29-0.86c-1.19,0-2.28,0.28-3.27,0.84c-0.98,0.56-1.77,1.38-2.35,2.46
		c-0.59,1.08-0.88,2.34-0.88,3.8c0,1.48,0.29,2.76,0.88,3.85c0.59,1.09,1.37,1.92,2.35,2.5c0.98,0.57,2.07,0.86,3.27,0.86
		c1.19,0,2.29-0.29,3.29-0.86c1-0.57,1.79-1.41,2.37-2.5C269.72,25.19,270.02,23.92,270.02,22.46z M202.99,32.13h3.2V12.87h-3.2
		V32.13z M316.07,10.45l1.36,2.27h-0.85l-1.29-2.21h-0.85v2.21h-0.71V7.3h1.75c0.41,0,0.75,0.07,1.04,0.21
		c0.28,0.14,0.49,0.33,0.63,0.57c0.14,0.24,0.21,0.51,0.21,0.82c0,0.37-0.11,0.7-0.32,0.99C316.83,10.17,316.5,10.36,316.07,10.45z
		 M315.48,9.94c0.38,0,0.67-0.09,0.86-0.28c0.19-0.19,0.29-0.44,0.29-0.76c0-0.32-0.09-0.57-0.28-0.75
		c-0.19-0.18-0.48-0.26-0.87-0.26h-1.04v2.05H315.48z M320.03,10.01c0,0.88-0.19,1.66-0.56,2.35c-0.37,0.69-0.9,1.23-1.57,1.61
		c-0.68,0.39-1.44,0.58-2.31,0.58c-0.87,0-1.64-0.19-2.32-0.58c-0.68-0.39-1.2-0.93-1.58-1.61c-0.38-0.69-0.56-1.47-0.56-2.35
		c0-0.88,0.19-1.66,0.56-2.35c0.38-0.69,0.9-1.23,1.58-1.61c0.67-0.39,1.45-0.58,2.32-0.58c0.86,0,1.63,0.19,2.31,0.58
		c0.67,0.39,1.2,0.93,1.57,1.61C319.85,8.35,320.03,9.13,320.03,10.01z M319.48,10.01c0-0.8-0.16-1.51-0.47-2.11
		c-0.32-0.61-0.77-1.08-1.35-1.42s-1.27-0.51-2.06-0.51c-0.79,0-1.49,0.17-2.08,0.51c-0.59,0.34-1.04,0.81-1.36,1.42
		c-0.32,0.61-0.47,1.31-0.47,2.11c0,0.79,0.16,1.5,0.47,2.11c0.32,0.61,0.77,1.09,1.36,1.43c0.59,0.34,1.28,0.51,2.08,0.51
		c0.79,0,1.47-0.17,2.06-0.51c0.59-0.34,1.04-0.82,1.35-1.43C319.32,11.51,319.48,10.8,319.48,10.01z M249.43,5.38
		c-0.61,0-1.12,0.21-1.55,0.63c-0.42,0.42-0.63,0.94-0.63,1.55c0,0.61,0.21,1.12,0.63,1.55c0.42,0.42,0.94,0.63,1.55,0.63
		c0.59,0,1.08-0.21,1.49-0.63c0.41-0.42,0.62-0.94,0.62-1.55c0-0.61-0.21-1.12-0.62-1.55C250.51,5.6,250.02,5.38,249.43,5.38z
		 M204.64,5.38c-0.61,0-1.12,0.21-1.55,0.63c-0.42,0.42-0.63,0.94-0.63,1.55c0,0.61,0.21,1.12,0.63,1.55
		c0.42,0.42,0.94,0.63,1.55,0.63c0.59,0,1.08-0.21,1.49-0.63c0.41-0.42,0.62-0.94,0.62-1.55c0-0.61-0.21-1.12-0.62-1.55
		C205.72,5.6,205.23,5.38,204.64,5.38z M219.5,12.52c-1.31,0-2.51,0.27-3.6,0.81c-1.09,0.54-1.95,1.3-2.58,2.28v-2.74h-3.2v19.26
		h3.2V21.48c0-2.01,0.5-3.55,1.49-4.6c1-1.05,2.34-1.58,4.02-1.58c1.66,0,2.98,0.51,3.94,1.53c0.96,1.02,1.44,2.49,1.44,4.41v10.9
		h3.16V20.78c0-2.67-0.73-4.71-2.18-6.13C223.74,13.23,221.84,12.52,219.5,12.52z M247.78,32.13h3.2V12.87h-3.2V32.13z
		 M241.68,22.41c-0.87-0.36-1.99-0.73-3.37-1.11c-1.1-0.3-1.96-0.58-2.58-0.83c-0.62-0.25-1.14-0.57-1.55-0.98
		c-0.41-0.41-0.62-0.93-0.62-1.56c0-0.8,0.34-1.44,1.02-1.93c0.68-0.49,1.59-0.74,2.74-0.74c1.24,0,2.23,0.3,2.97,0.91
		c0.74,0.61,1.14,1.42,1.21,2.42h3.2c-0.09-1.87-0.8-3.35-2.11-4.43c-1.31-1.08-3.03-1.62-5.17-1.62c-1.38,0-2.61,0.24-3.69,0.72
		c-1.08,0.48-1.91,1.13-2.5,1.95c-0.59,0.82-0.88,1.72-0.88,2.71c0,1.24,0.32,2.24,0.97,3c0.64,0.76,1.42,1.34,2.32,1.72
		s2.07,0.77,3.5,1.14c1.57,0.4,2.73,0.8,3.48,1.21c0.75,0.41,1.12,1.04,1.12,1.88c0,0.82-0.35,1.5-1.05,2.04
		c-0.7,0.54-1.66,0.81-2.88,0.81c-1.31,0-2.37-0.3-3.18-0.91c-0.81-0.61-1.26-1.39-1.35-2.35h-3.3c0.07,1.17,0.44,2.21,1.12,3.11
		c0.68,0.9,1.6,1.61,2.78,2.11c1.17,0.5,2.5,0.76,3.97,0.76c1.38,0,2.61-0.24,3.67-0.72c1.07-0.48,1.89-1.14,2.48-1.99
		c0.59-0.84,0.88-1.79,0.88-2.85c-0.02-1.17-0.35-2.12-0.97-2.85C243.29,23.32,242.55,22.78,241.68,22.41z"/>
	<g>
		<path d="M71.11,6.13c-2.61,0-6.57,1.47-7.87,4.67V6.78h-6.3v25.35h6.3V18.67c0-4.89,3.58-6.57,6.46-6.57
			c2.82,0,5.27,2.17,5.27,6.24v13.79h6.3V17.91C81.26,10.53,77.63,6.13,71.11,6.13z"/>
		<path d="M39.03,6.13c-7.22,0-13.46,5.27-13.46,13.3s6.24,13.35,13.46,13.35c7.22,0,13.52-5.32,13.52-13.35S46.25,6.13,39.03,6.13z
			 M39.03,26.92c-3.91,0-7.11-3.04-7.11-7.49c0-4.34,3.2-7.44,7.11-7.44c3.91,0,7.17,3.09,7.17,7.44
			C46.2,23.88,42.94,26.92,39.03,26.92z"/>
		<path d="M13.93,26.91c-4.4,0.02-7.56-3.23-7.58-7.46c-0.02-4.29,3.12-7.45,7.51-7.47c2.28-0.01,4.46,0.96,5.76,2.53l4.44-3.55
			c-2.35-2.92-5.94-4.86-10.33-4.84C6.41,6.15-0.03,11.44,0,19.48c0.03,8.03,6.51,13.33,13.84,13.3c4.4-0.02,7.97-1.99,10.29-4.93
			l-4.47-3.51C18.37,25.92,16.21,26.9,13.93,26.91z"/>
		<path d="M116.39,27.08c-3.8,0-6.51-1.9-7.22-5.43h19.65c0.05-0.92,0.11-1.74,0.11-2.44c0-7.93-5.7-13.08-12.92-13.08
			c-7.27,0-13.3,5.21-13.3,13.3c0,7.93,5.75,13.35,13.3,13.35c4.61,0,9.12-2.06,11.45-5.75l-4.23-3.2
			C121.76,25.89,119.1,27.08,116.39,27.08z M116.06,11.72c3.53,0,6.24,2.06,6.62,5.54h-13.52C109.93,13.4,112.7,11.72,116.06,11.72z
			"/>
		<rect x="158.44" y="6.78" width="6.3" height="25.35"/>
		<polygon points="130.28,6.78 138.58,18.29 128.59,32.13 135.98,32.13 142.16,23.39 148.3,32.13 155.73,32.13 137.71,6.78 		"/>
		<path d="M182.73,17.42l-4.07-1.09c-1.47-0.33-2.71-1.09-2.71-2.39c0-1.57,1.36-2.71,3.31-2.71c1.79,0,3.37,1.09,3.37,2.82h6.03
			c0.05-5.65-5.05-7.93-9.55-7.93c-5.54,0-9.45,3.58-9.45,7.55c0,3.2,1.47,6.24,7.17,7.76l3.37,0.87c1.9,0.43,2.99,1.09,2.99,2.5
			c0,1.63-1.63,2.88-4.13,2.88c-2.66,0-4.18-1.63-4.18-3.37h-5.92c0.11,5.43,5.16,8.47,10.21,8.47c5.16,0,10.31-2.82,10.31-7.98
			C189.46,22.47,188.43,18.89,182.73,17.42z"/>
		<path d="M94.51,21.22v-9.45h6.05V6.78h-6.05V0h-6.3v6.78h-5v4.99h5v9.66c0,7.06,2.71,10.69,9.83,10.69h3.06v-5.86h-2.41
			C95.38,26.27,94.46,24.1,94.51,21.22z"/>
	</g>
</g>
</svg>
