<?xml version="1.0" encoding="utf-8"?>
<!-- Generator: Adobe Illustrator 27.3.1, SVG Export Plug-In . SVG Version: 6.00 Build 0)  -->
<svg version="1.1" id="Layer_1" xmlns="http://www.w3.org/2000/svg" xmlns:xlink="http://www.w3.org/1999/xlink" x="0px" y="0px"
	 viewBox="0 0 864.74 895.79" style="enable-background:new 0 0 864.74 895.79;" xml:space="preserve">
<style type="text/css">
	.st0{opacity:0.2;}
	.st1{fill:#A8A8A8;}
</style>
<g class="st0">
	<g>
		<circle class="st1" cx="847.43" cy="609.58" r="4.07"/>
		<circle class="st1" cx="815.98" cy="632.49" r="4.38"/>
		<circle class="st1" cx="782.67" cy="651.3" r="4.68"/>
		<circle class="st1" cx="747.87" cy="666" r="4.99"/>
		<circle class="st1" cx="711.95" cy="676.6" r="5.3"/>
		<circle class="st1" cx="675.26" cy="683.12" r="5.6"/>
		<circle class="st1" cx="638.19" cy="685.54" r="5.91"/>
		<circle class="st1" cx="601.09" cy="683.87" r="6.21"/>
		<circle class="st1" cx="564.33" cy="678.12" r="6.52"/>
		<circle class="st1" cx="528.28" cy="668.29" r="6.82"/>
		<circle class="st1" cx="493.29" cy="654.38" r="7.13"/>
		<circle class="st1" cx="459.75" cy="636.4" r="7.43"/>
		<circle class="st1" cx="428.01" cy="614.35" r="7.74"/>
		
			<ellipse transform="matrix(0.1239 -0.9923 0.9923 0.1239 -234.6195 910.7276)" class="st1" cx="398.44" cy="588.23" rx="8.04" ry="8.04"/>
		
			<ellipse transform="matrix(0.1239 -0.9923 0.9923 0.1239 -228.5377 858.7026)" class="st1" cx="372.02" cy="558.77" rx="8.35" ry="8.35"/>
		
			<ellipse transform="matrix(0.1239 -0.9923 0.9923 0.1239 -216.7256 808.8338)" class="st1" cx="349.68" cy="527.15" rx="8.66" ry="8.66"/>
		
			<ellipse transform="matrix(0.1239 -0.9923 0.9923 0.1239 -199.5484 761.437)" class="st1" cx="331.43" cy="493.72" rx="8.96" ry="8.96"/>
		
			<ellipse transform="matrix(0.1239 -0.9923 0.9923 0.1239 -177.3686 716.8293)" class="st1" cx="317.26" cy="458.86" rx="9.27" ry="9.27"/>
		
			<ellipse transform="matrix(0.1239 -0.9923 0.9923 0.1239 -150.5503 675.3245)" class="st1" cx="307.17" cy="422.92" rx="9.57" ry="9.57"/>
		
			<ellipse transform="matrix(0.1239 -0.9923 0.9923 0.1239 -119.4566 637.2383)" class="st1" cx="301.14" cy="386.27" rx="9.88" ry="9.88"/>
		
			<ellipse transform="matrix(0.1239 -0.9923 0.9923 0.1239 -84.4519 602.8841)" class="st1" cx="299.19" cy="349.27" rx="10.18" ry="10.18"/>
		
			<ellipse transform="matrix(0.1239 -0.9923 0.9923 0.1239 -45.8991 572.5781)" class="st1" cx="301.3" cy="312.28" rx="10.49" ry="10.49"/>
		
			<ellipse transform="matrix(0.1239 -0.9923 0.9923 0.1239 -4.1624 546.6339)" class="st1" cx="307.48" cy="275.67" rx="10.79" ry="10.79"/>
		
			<ellipse transform="matrix(0.1239 -0.9923 0.9923 0.1239 40.3948 525.3668)" class="st1" cx="317.72" cy="239.81" rx="11.1" ry="11.1"/>
		
			<ellipse transform="matrix(0.1239 -0.9923 0.9923 0.1239 87.4094 509.092)" class="st1" cx="332.01" cy="205.05" rx="11.4" ry="11.4"/>
		
			<ellipse transform="matrix(0.1239 -0.9923 0.9923 0.1239 136.5166 498.1233)" class="st1" cx="350.35" cy="171.75" rx="11.71" ry="11.71"/>
		
			<ellipse transform="matrix(0.1239 -0.9923 0.9923 0.1239 187.3538 492.7762)" class="st1" cx="372.74" cy="140.29" rx="12.02" ry="12.02"/>
		
			<ellipse transform="matrix(0.1239 -0.9923 0.9923 0.1239 239.5565 493.3653)" class="st1" cx="399.17" cy="111.02" rx="12.32" ry="12.32"/>
		
			<ellipse transform="matrix(0.1239 -0.9923 0.9923 0.1239 291.5414 500.0283)" class="st1" cx="428.94" cy="84.91" rx="12.63" ry="12.63"/>
		
			<ellipse transform="matrix(0.1239 -0.9923 0.9923 0.1239 341.3278 512.4193)" class="st1" cx="460.85" cy="62.91" rx="12.93" ry="12.93"/>
		
			<ellipse transform="matrix(0.1239 -0.9923 0.9923 0.1239 388.5943 530.1713)" class="st1" cx="494.54" cy="45.02" rx="13.24" ry="13.24"/>
		
			<ellipse transform="matrix(0.1239 -0.9923 0.9923 0.1239 433.0246 552.9176)" class="st1" cx="529.63" cy="31.23" rx="13.54" ry="13.54"/>
		
			<ellipse transform="matrix(0.1239 -0.9923 0.9923 0.1239 474.2983 580.2909)" class="st1" cx="565.77" cy="21.55" rx="13.85" ry="13.85"/>
		
			<ellipse transform="matrix(0.1239 -0.9923 0.9923 0.1239 512.1011 611.9249)" class="st1" cx="602.59" cy="15.96" rx="14.15" ry="14.15"/>
		
			<ellipse transform="matrix(0.1239 -0.9923 0.9923 0.1239 546.1132 647.4524)" class="st1" cx="639.71" cy="14.46" rx="14.46" ry="14.46"/>
		
			<ellipse transform="matrix(0.1239 -0.9923 0.9923 0.1239 576.0179 686.5068)" class="st1" cx="676.78" cy="17.05" rx="14.76" ry="14.76"/>
		
			<ellipse transform="matrix(0.1239 -0.9923 0.9923 0.1239 601.4973 728.7211)" class="st1" cx="713.43" cy="23.73" rx="15.07" ry="15.07"/>
		
			<ellipse transform="matrix(0.1239 -0.9923 0.9923 0.1239 622.2346 773.7286)" class="st1" cx="749.28" cy="34.49" rx="15.38" ry="15.38"/>
		
			<ellipse transform="matrix(0.1239 -0.9923 0.9923 0.1239 637.9113 821.1624)" class="st1" cx="783.98" cy="49.33" rx="15.68" ry="15.68"/>
		
			<ellipse transform="matrix(0.1239 -0.9923 0.9923 0.1239 648.2102 870.6556)" class="st1" cx="817.16" cy="68.24" rx="15.99" ry="15.99"/>
		
			<ellipse transform="matrix(0.1239 -0.9923 0.9923 0.1239 652.8145 921.8416)" class="st1" cx="848.45" cy="91.23" rx="16.29" ry="16.29"/>
	</g>
	<g>
		<circle class="st1" cx="815.74" cy="630.01" r="4.07"/>
		<circle class="st1" cx="784.79" cy="653.62" r="4.37"/>
		<circle class="st1" cx="751.82" cy="673.22" r="4.68"/>
		<circle class="st1" cx="717.19" cy="688.75" r="4.98"/>
		<circle class="st1" cx="681.25" cy="700.2" r="5.29"/>
		<circle class="st1" cx="644.36" cy="707.51" r="5.6"/>
		<circle class="st1" cx="606.88" cy="710.65" r="5.9"/>
		<circle class="st1" cx="569.17" cy="709.59" r="6.21"/>
		<circle class="st1" cx="531.76" cy="704.29" r="6.51"/>
		<circle class="st1" cx="495.15" cy="694.8" r="6.82"/>
		<circle class="st1" cx="459.72" cy="681.14" r="7.12"/>
		<circle class="st1" cx="425.81" cy="663.36" r="7.43"/>
		<circle class="st1" cx="393.79" cy="641.51" r="7.73"/>
		
			<ellipse transform="matrix(0.9989 -0.0474 0.0474 0.9989 -28.7641 17.9412)" class="st1" cx="364.01" cy="615.63" rx="8.04" ry="8.04"/>
		
			<ellipse transform="matrix(0.9989 -0.0474 0.0474 0.9989 -27.4083 16.6465)" class="st1" cx="337.39" cy="586.39" rx="8.34" ry="8.34"/>
		
			<ellipse transform="matrix(0.9989 -0.0474 0.0474 0.9989 -25.9401 15.5395)" class="st1" cx="314.76" cy="554.86" rx="8.65" ry="8.65"/>
		
			<ellipse transform="matrix(0.9989 -0.0474 0.0474 0.9989 -24.3743 14.6211)" class="st1" cx="296.19" cy="521.39" rx="8.95" ry="8.95"/>
		
			<ellipse transform="matrix(0.9989 -0.0474 0.0474 0.9989 -22.7304 13.895)" class="st1" cx="281.69" cy="486.34" rx="9.26" ry="9.26"/>
		
			<ellipse transform="matrix(0.9989 -0.0474 0.0474 0.9989 -21.0235 13.3623)" class="st1" cx="271.31" cy="450.08" rx="9.56" ry="9.56"/>
		
			<ellipse transform="matrix(0.9989 -0.0474 0.0474 0.9989 -19.2713 13.0258)" class="st1" cx="265.09" cy="412.96" rx="9.87" ry="9.87"/>
		
			<ellipse transform="matrix(0.9989 -0.0474 0.0474 0.9989 -17.4906 12.8873)" class="st1" cx="263.06" cy="375.33" rx="10.17" ry="10.17"/>
		
			<ellipse transform="matrix(0.9989 -0.0474 0.0474 0.9989 -15.7071 12.9487)" class="st1" cx="265.24" cy="337.74" rx="10.48" ry="10.48"/>
		
			<ellipse transform="matrix(0.9989 -0.0474 0.0474 0.9989 -13.9432 13.2086)" class="st1" cx="271.61" cy="300.67" rx="10.78" ry="10.78"/>
		
			<ellipse transform="matrix(0.9989 -0.0474 0.0474 0.9989 -12.2167 13.6658)" class="st1" cx="282.11" cy="264.49" rx="11.09" ry="11.09"/>
		
			<ellipse transform="matrix(0.9989 -0.0474 0.0474 0.9989 -10.5445 14.3188)" class="st1" cx="296.72" cy="229.55" rx="11.39" ry="11.39"/>
		
			<ellipse transform="matrix(0.9989 -0.0474 0.0474 0.9989 -8.9434 15.1656)" class="st1" cx="315.38" cy="196.2" rx="11.7" ry="11.7"/>
		
			<ellipse transform="matrix(0.9989 -0.0474 0.0474 0.9989 -7.4305 16.2048)" class="st1" cx="338.05" cy="164.81" rx="12" ry="12"/>
		
			<ellipse transform="matrix(0.9989 -0.0474 0.0474 0.9989 -6.0227 17.4343)" class="st1" cx="364.69" cy="135.74" rx="12.31" ry="12.31"/>
		
			<ellipse transform="matrix(0.9989 -0.0474 0.0474 0.9989 -4.7631 18.8248)" class="st1" cx="394.64" cy="109.87" rx="12.61" ry="12.61"/>
		
			<ellipse transform="matrix(0.9989 -0.0474 0.0474 0.9989 -3.6938 20.3252)" class="st1" cx="426.82" cy="88.07" rx="12.92" ry="12.92"/>
		
			<ellipse transform="matrix(0.9989 -0.0474 0.0474 0.9989 -2.8172 21.9187)" class="st1" cx="460.87" cy="70.37" rx="13.22" ry="13.22"/>
		
			<ellipse transform="matrix(0.9989 -0.0474 0.0474 0.9989 -2.1353 23.5888)" class="st1" cx="496.42" cy="56.83" rx="13.53" ry="13.53"/>
		
			<ellipse transform="matrix(0.9989 -0.0474 0.0474 0.9989 -1.6504 25.3167)" class="st1" cx="533.12" cy="47.47" rx="13.84" ry="13.84"/>
		
			<ellipse transform="matrix(0.9989 -0.0474 0.0474 0.9989 -1.3646 27.0874)" class="st1" cx="570.6" cy="42.32" rx="14.14" ry="14.14"/>
		
			<ellipse transform="matrix(0.9989 -0.0474 0.0474 0.9989 -1.2795 28.8735)" class="st1" cx="608.31" cy="41.42" rx="14.45" ry="14.45"/>
		
			<ellipse transform="matrix(0.9989 -0.0474 0.0474 0.9989 -1.3939 30.6519)" class="st1" cx="645.77" cy="44.72" rx="14.75" ry="14.75"/>
		
			<ellipse transform="matrix(0.9989 -0.0474 0.0474 0.9989 -1.7062 32.4062)" class="st1" cx="682.61" cy="52.19" rx="15.06" ry="15.06"/>
		
			<ellipse transform="matrix(0.9989 -0.0474 0.0474 0.9989 -2.2149 34.1197)" class="st1" cx="718.49" cy="63.77" rx="15.36" ry="15.36"/>
		
			<ellipse transform="matrix(0.9989 -0.0474 0.0474 0.9989 -2.9183 35.7741)" class="st1" cx="753.03" cy="79.43" rx="15.67" ry="15.67"/>
		
			<ellipse transform="matrix(0.9989 -0.0474 0.0474 0.9989 -3.8146 37.3524)" class="st1" cx="785.88" cy="99.13" rx="15.97" ry="15.97"/>
		
			<ellipse transform="matrix(0.9989 -0.0474 0.0474 0.9989 -4.9025 38.8388)" class="st1" cx="816.68" cy="122.82" rx="16.28" ry="16.28"/>
	</g>
	<g>
		<circle class="st1" cx="784.04" cy="650.44" r="4.07"/>
		<circle class="st1" cx="753.61" cy="674.76" r="4.37"/>
		<circle class="st1" cx="720.98" cy="695.14" r="4.68"/>
		<circle class="st1" cx="686.51" cy="711.51" r="4.98"/>
		<circle class="st1" cx="650.55" cy="723.79" r="5.28"/>
		<circle class="st1" cx="613.45" cy="731.9" r="5.59"/>
		<circle class="st1" cx="575.57" cy="735.76" r="5.89"/>
		<circle class="st1" cx="537.26" cy="735.31" r="6.2"/>
		<circle class="st1" cx="499.19" cy="730.47" r="6.5"/>
		<circle class="st1" cx="462.03" cy="721.31" r="6.81"/>
		
			<ellipse transform="matrix(0.98 -0.1988 0.1988 0.98 -132.2527 98.8717)" class="st1" cx="426.14" cy="707.9" rx="7.11" ry="7.11"/>
		
			<ellipse transform="matrix(0.98 -0.1988 0.1988 0.98 -129.4434 91.7051)" class="st1" cx="391.86" cy="690.33" rx="7.42" ry="7.42"/>
		
			<ellipse transform="matrix(0.98 -0.1988 0.1988 0.98 -125.783 84.8491)" class="st1" cx="359.56" cy="668.68" rx="7.72" ry="7.72"/>
		
			<ellipse transform="matrix(0.98 -0.1988 0.1988 0.98 -121.2811 78.3765)" class="st1" cx="329.59" cy="643.03" rx="8.03" ry="8.03"/>
		<ellipse transform="matrix(0.98 -0.1988 0.1988 0.98 -116.0452 72.4611)" class="st1" cx="302.75" cy="614" rx="8.33" ry="8.33"/>
		
			<ellipse transform="matrix(0.98 -0.1988 0.1988 0.98 -110.2509 67.2786)" class="st1" cx="279.84" cy="582.56" rx="8.64" ry="8.64"/>
		
			<ellipse transform="matrix(0.98 -0.1988 0.1988 0.98 -103.9648 62.8501)" class="st1" cx="260.94" cy="549.05" rx="8.94" ry="8.94"/>
		
			<ellipse transform="matrix(0.98 -0.1988 0.1988 0.98 -97.2571 59.1995)" class="st1" cx="246.12" cy="513.83" rx="9.25" ry="9.25"/>
		
			<ellipse transform="matrix(0.98 -0.1988 0.1988 0.98 -90.1954 56.3488)" class="st1" cx="235.45" cy="477.24" rx="9.55" ry="9.55"/>
		
			<ellipse transform="matrix(0.98 -0.1988 0.1988 0.98 -82.848 54.3205)" class="st1" cx="229.03" cy="439.65" rx="9.86" ry="9.86"/>
		
			<ellipse transform="matrix(0.98 -0.1988 0.1988 0.98 -75.2839 53.1372)" class="st1" cx="226.92" cy="401.4" rx="10.16" ry="10.16"/>
		
			<ellipse transform="matrix(0.98 -0.1988 0.1988 0.98 -67.644 52.8226)" class="st1" cx="229.17" cy="363.2" rx="10.47" ry="10.47"/>
		
			<ellipse transform="matrix(0.98 -0.1988 0.1988 0.98 -60.0513 53.3769)" class="st1" cx="235.73" cy="325.67" rx="10.77" ry="10.77"/>
		
			<ellipse transform="matrix(0.98 -0.1988 0.1988 0.98 -52.5779 54.7913)" class="st1" cx="246.51" cy="289.17" rx="11.08" ry="11.08"/>
		
			<ellipse transform="matrix(0.98 -0.1988 0.1988 0.98 -45.2956 57.0566)" class="st1" cx="261.43" cy="254.05" rx="11.38" ry="11.38"/>
		
			<ellipse transform="matrix(0.98 -0.1988 0.1988 0.98 -38.2762 60.1636)" class="st1" cx="280.41" cy="220.65" rx="11.69" ry="11.69"/>
		
			<ellipse transform="matrix(0.98 -0.1988 0.1988 0.98 -31.5914 64.103)" class="st1" cx="303.36" cy="189.34" rx="11.99" ry="11.99"/>
		
			<ellipse transform="matrix(0.98 -0.1988 0.1988 0.98 -25.313 68.8657)" class="st1" cx="330.22" cy="160.46" rx="12.3" ry="12.3"/>
		
			<ellipse transform="matrix(0.98 -0.1988 0.1988 0.98 -19.6136 74.3458)" class="st1" cx="360.35" cy="134.83" rx="12.6" ry="12.6"/>
		
			<ellipse transform="matrix(0.98 -0.1988 0.1988 0.98 -14.6696 80.3663)" class="st1" cx="392.8" cy="113.22" rx="12.91" ry="12.91"/>
		
			<ellipse transform="matrix(0.98 -0.1988 0.1988 0.98 -10.5041 86.8583)" class="st1" cx="427.2" cy="95.73" rx="13.21" ry="13.21"/>
		
			<ellipse transform="matrix(0.98 -0.1988 0.1988 0.98 -7.1395 93.753)" class="st1" cx="463.21" cy="82.42" rx="13.52" ry="13.52"/>
		
			<ellipse transform="matrix(0.98 -0.1988 0.1988 0.98 -4.5983 100.9809)" class="st1" cx="500.47" cy="73.38" rx="13.82" ry="13.82"/>
		
			<ellipse transform="matrix(0.98 -0.1988 0.1988 0.98 -2.9033 108.4729)" class="st1" cx="538.62" cy="68.69" rx="14.13" ry="14.13"/>
		
			<ellipse transform="matrix(0.98 -0.1988 0.1988 0.98 -2.0775 116.0799)" class="st1" cx="576.9" cy="68.38" rx="14.43" ry="14.43"/>
		
			<ellipse transform="matrix(0.98 -0.1988 0.1988 0.98 -2.1197 123.6853)" class="st1" cx="614.75" cy="72.4" rx="14.74" ry="14.74"/>
		
			<ellipse transform="matrix(0.98 -0.1988 0.1988 0.98 -3.0208 131.2169)" class="st1" cx="651.8" cy="80.65" rx="15.04" ry="15.04"/>
		
			<ellipse transform="matrix(0.98 -0.1988 0.1988 0.98 -4.7714 138.6026)" class="st1" cx="687.69" cy="93.06" rx="15.35" ry="15.35"/>
		
			<ellipse transform="matrix(0.98 -0.1988 0.1988 0.98 -7.3623 145.7695)" class="st1" cx="722.08" cy="109.54" rx="15.65" ry="15.65"/>
		
			<ellipse transform="matrix(0.98 -0.1988 0.1988 0.98 -10.7844 152.645)" class="st1" cx="754.6" cy="130.02" rx="15.96" ry="15.96"/>
		
			<ellipse transform="matrix(0.98 -0.1988 0.1988 0.98 -15.0283 159.1578)" class="st1" cx="784.91" cy="154.4" rx="16.26" ry="16.26"/>
	</g>
	<g>
		<circle class="st1" cx="752.35" cy="670.87" r="4.06"/>
		<circle class="st1" cx="722.43" cy="695.89" r="4.37"/>
		<circle class="st1" cx="690.14" cy="717.06" r="4.67"/>
		<circle class="st1" cx="655.83" cy="734.26" r="4.98"/>
		<circle class="st1" cx="619.85" cy="747.38" r="5.28"/>
		<circle class="st1" cx="582.54" cy="756.29" r="5.58"/>
		<circle class="st1" cx="544.25" cy="760.88" r="5.89"/>
		
			<ellipse transform="matrix(0.9503 -0.3114 0.3114 0.9503 -211.8827 195.2341)" class="st1" cx="505.34" cy="761.03" rx="6.19" ry="6.19"/>
		
			<ellipse transform="matrix(0.9503 -0.3114 0.3114 0.9503 -212.4445 182.9579)" class="st1" cx="466.62" cy="756.65" rx="6.5" ry="6.5"/>
		
			<ellipse transform="matrix(0.9503 -0.3114 0.3114 0.9503 -211.5706 170.7749)" class="st1" cx="428.91" cy="747.82" rx="6.8" ry="6.8"/>
		
			<ellipse transform="matrix(0.9503 -0.3114 0.3114 0.9503 -209.2811 158.7996)" class="st1" cx="392.56" cy="734.66" rx="7.11" ry="7.11"/>
		
			<ellipse transform="matrix(0.9503 -0.3114 0.3114 0.9503 -205.5961 147.1468)" class="st1" cx="357.92" cy="717.3" rx="7.41" ry="7.41"/>
		
			<ellipse transform="matrix(0.9503 -0.3114 0.3114 0.9503 -200.5358 135.9312)" class="st1" cx="325.34" cy="695.85" rx="7.72" ry="7.72"/>
		
			<ellipse transform="matrix(0.9503 -0.3114 0.3114 0.9503 -194.1209 125.2684)" class="st1" cx="295.16" cy="670.43" rx="8.02" ry="8.02"/>
		
			<ellipse transform="matrix(0.9503 -0.3114 0.3114 0.9503 -186.4926 115.4142)" class="st1" cx="268.12" cy="641.62" rx="8.33" ry="8.33"/>
		
			<ellipse transform="matrix(0.9503 -0.3114 0.3114 0.9503 -177.8816 106.6314)" class="st1" cx="244.92" cy="610.27" rx="8.63" ry="8.63"/>
		
			<ellipse transform="matrix(0.9503 -0.3114 0.3114 0.9503 -168.3885 98.9733)" class="st1" cx="225.69" cy="576.71" rx="8.94" ry="8.94"/>
		
			<ellipse transform="matrix(0.9503 -0.3114 0.3114 0.9503 -158.1164 92.4951)" class="st1" cx="210.55" cy="541.31" rx="9.24" ry="9.24"/>
		
			<ellipse transform="matrix(0.9503 -0.3114 0.3114 0.9503 -147.1665 87.2505)" class="st1" cx="199.6" cy="504.41" rx="9.54" ry="9.54"/>
		
			<ellipse transform="matrix(0.9503 -0.3114 0.3114 0.9503 -135.64 83.2933)" class="st1" cx="192.97" cy="466.34" rx="9.85" ry="9.85"/>
		
			<ellipse transform="matrix(0.9503 -0.3114 0.3114 0.9503 -123.6406 80.6782)" class="st1" cx="190.78" cy="427.46" rx="10.15" ry="10.15"/>
		
			<ellipse transform="matrix(0.9503 -0.3114 0.3114 0.9503 -111.4409 79.472)" class="st1" cx="193.11" cy="388.66" rx="10.46" ry="10.46"/>
		
			<ellipse transform="matrix(0.9503 -0.3114 0.3114 0.9503 -99.2753 79.6839)" class="st1" cx="199.85" cy="350.67" rx="10.76" ry="10.76"/>
		
			<ellipse transform="matrix(0.9503 -0.3114 0.3114 0.9503 -87.2586 81.2944)" class="st1" cx="210.9" cy="313.86" rx="11.07" ry="11.07"/>
		
			<ellipse transform="matrix(0.9503 -0.3114 0.3114 0.9503 -75.5051 84.283)" class="st1" cx="226.14" cy="278.55" rx="11.37" ry="11.37"/>
		
			<ellipse transform="matrix(0.9503 -0.3114 0.3114 0.9503 -64.1289 88.6296)" class="st1" cx="245.44" cy="245.1" rx="11.68" ry="11.68"/>
		
			<ellipse transform="matrix(0.9503 -0.3114 0.3114 0.9503 -53.2443 94.3137)" class="st1" cx="268.68" cy="213.87" rx="11.98" ry="11.98"/>
		
			<ellipse transform="matrix(0.9503 -0.3114 0.3114 0.9503 -42.9657 101.3151)" class="st1" cx="295.74" cy="185.18" rx="12.29" ry="12.29"/>
		
			<ellipse transform="matrix(0.9503 -0.3114 0.3114 0.9503 -33.5467 109.494)" class="st1" cx="326.05" cy="159.78" rx="12.59" ry="12.59"/>
		
			<ellipse transform="matrix(0.9503 -0.3114 0.3114 0.9503 -25.2522 118.6182)" class="st1" cx="358.77" cy="138.37" rx="12.9" ry="12.9"/>
		
			<ellipse transform="matrix(0.9503 -0.3114 0.3114 0.9503 -18.1369 128.585)" class="st1" cx="393.53" cy="121.08" rx="13.2" ry="13.2"/>
		
			<ellipse transform="matrix(0.9503 -0.3114 0.3114 0.9503 -12.2549 139.2925)" class="st1" cx="430" cy="108.02" rx="13.5" ry="13.5"/>
		
			<ellipse transform="matrix(0.9503 -0.3114 0.3114 0.9503 -7.6603 150.6375)" class="st1" cx="467.82" cy="99.3" rx="13.81" ry="13.81"/>
		
			<ellipse transform="matrix(0.9503 -0.3114 0.3114 0.9503 -4.4079 162.5149)" class="st1" cx="506.63" cy="95.06" rx="14.11" ry="14.11"/>
		
			<ellipse transform="matrix(0.9503 -0.3114 0.3114 0.9503 -2.5642 174.634)" class="st1" cx="545.5" cy="95.35" rx="14.42" ry="14.42"/>
		
			<ellipse transform="matrix(0.9503 -0.3114 0.3114 0.9503 -2.1338 186.7764)" class="st1" cx="583.73" cy="100.07" rx="14.72" ry="14.72"/>
		
			<ellipse transform="matrix(0.9503 -0.3114 0.3114 0.9503 -3.0963 198.8271)" class="st1" cx="620.98" cy="109.11" rx="15.03" ry="15.03"/>
		
			<ellipse transform="matrix(0.9503 -0.3114 0.3114 0.9503 -5.4313 210.6711)" class="st1" cx="656.9" cy="122.34" rx="15.33" ry="15.33"/>
		
			<ellipse transform="matrix(0.9503 -0.3114 0.3114 0.9503 -9.1185 222.1929)" class="st1" cx="691.13" cy="139.65" rx="15.64" ry="15.64"/>
		
			<ellipse transform="matrix(0.9503 -0.3114 0.3114 0.9503 -14.1376 233.2767)" class="st1" cx="723.33" cy="160.9" rx="15.94" ry="15.94"/>
		
			<ellipse transform="matrix(0.9503 -0.3114 0.3114 0.9503 -20.4679 243.8089)" class="st1" cx="753.14" cy="185.99" rx="16.25" ry="16.25"/>
	</g>
	<g>
		<circle class="st1" cx="720.66" cy="691.3" r="4.06"/>
		<circle class="st1" cx="691.25" cy="717.02" r="4.36"/>
		<circle class="st1" cx="659.3" cy="738.98" r="4.67"/>
		<circle class="st1" cx="625.15" cy="757.01" r="4.97"/>
		
			<ellipse transform="matrix(0.9209 -0.3899 0.3899 0.9209 -253.9557 290.6928)" class="st1" cx="589.15" cy="770.97" rx="5.28" ry="5.27"/>
		
			<ellipse transform="matrix(0.9209 -0.3899 0.3899 0.9209 -260.712 276.8362)" class="st1" cx="551.63" cy="780.68" rx="5.58" ry="5.58"/>
		
			<ellipse transform="matrix(0.9209 -0.3899 0.3899 0.9209 -265.844 262.1728)" class="st1" cx="512.94" cy="785.99" rx="5.88" ry="5.88"/>
		
			<ellipse transform="matrix(0.9209 -0.3899 0.3899 0.9209 -269.2639 246.8257)" class="st1" cx="473.42" cy="786.75" rx="6.19" ry="6.19"/>
		
			<ellipse transform="matrix(0.9209 -0.3899 0.3899 0.9209 -270.8503 231.1663)" class="st1" cx="434.05" cy="782.82" rx="6.49" ry="6.49"/>
		
			<ellipse transform="matrix(0.9209 -0.3899 0.3899 0.9209 -270.5665 215.578)" class="st1" cx="395.79" cy="774.33" rx="6.8" ry="6.8"/>
		
			<ellipse transform="matrix(0.9209 -0.3899 0.3899 0.9209 -268.4475 200.2074)" class="st1" cx="358.99" cy="761.42" rx="7.1" ry="7.1"/>
		
			<ellipse transform="matrix(0.9209 -0.3899 0.3899 0.9209 -264.5287 185.2013)" class="st1" cx="323.98" cy="744.27" rx="7.41" ry="7.41"/>
		
			<ellipse transform="matrix(0.9209 -0.3899 0.3899 0.9209 -258.844 170.7057)" class="st1" cx="291.11" cy="723.02" rx="7.71" ry="7.71"/>
		
			<ellipse transform="matrix(0.9209 -0.3899 0.3899 0.9209 -251.4296 156.8682)" class="st1" cx="260.73" cy="697.83" rx="8.01" ry="8.01"/>
		
			<ellipse transform="matrix(0.9209 -0.3899 0.3899 0.9209 -242.437 143.9834)" class="st1" cx="233.48" cy="669.24" rx="8.32" ry="8.32"/>
		
			<ellipse transform="matrix(0.9209 -0.3899 0.3899 0.9209 -232.1063 132.3551)" class="st1" cx="210" cy="637.97" rx="8.62" ry="8.62"/>
		
			<ellipse transform="matrix(0.9209 -0.3899 0.3899 0.9209 -220.5569 122.0723)" class="st1" cx="190.45" cy="604.38" rx="8.93" ry="8.93"/>
		
			<ellipse transform="matrix(0.9209 -0.3899 0.3899 0.9209 -207.9096 113.2247)" class="st1" cx="174.97" cy="568.8" rx="9.23" ry="9.23"/>
		
			<ellipse transform="matrix(0.9209 -0.3899 0.3899 0.9209 -194.2836 105.9006)" class="st1" cx="163.74" cy="531.57" rx="9.54" ry="9.54"/>
		
			<ellipse transform="matrix(0.9209 -0.3899 0.3899 0.9209 -179.7986 100.1889)" class="st1" cx="156.92" cy="493.03" rx="9.84" ry="9.84"/>
		
			<ellipse transform="matrix(0.9209 -0.3899 0.3899 0.9209 -164.5765 96.1792)" class="st1" cx="154.65" cy="453.52" rx="10.14" ry="10.14"/>
		
			<ellipse transform="matrix(0.9209 -0.3899 0.3899 0.9209 -149.024 93.9936)" class="st1" cx="157.04" cy="414.12" rx="10.45" ry="10.45"/>
		
			<ellipse transform="matrix(0.9209 -0.3899 0.3899 0.9209 -133.4874 93.6562)" class="st1" cx="163.98" cy="375.67" rx="10.75" ry="10.75"/>
		
			<ellipse transform="matrix(0.9209 -0.3899 0.3899 0.9209 -118.1134 95.1322)" class="st1" cx="175.3" cy="338.54" rx="11.06" ry="11.06"/>
		
			<ellipse transform="matrix(0.9209 -0.3899 0.3899 0.9209 -103.0474 98.3859)" class="st1" cx="190.85" cy="303.05" rx="11.36" ry="11.36"/>
		
			<ellipse transform="matrix(0.9209 -0.3899 0.3899 0.9209 -88.4362 103.3828)" class="st1" cx="210.47" cy="269.55" rx="11.67" ry="11.67"/>
		
			<ellipse transform="matrix(0.9209 -0.3899 0.3899 0.9209 -74.4257 110.0875)" class="st1" cx="233.99" cy="238.39" rx="11.97" ry="11.97"/>
		
			<ellipse transform="matrix(0.9209 -0.3899 0.3899 0.9209 -61.162 118.4649)" class="st1" cx="261.26" cy="209.9" rx="12.27" ry="12.27"/>
		
			<ellipse transform="matrix(0.9209 -0.3899 0.3899 0.9209 -48.937 128.3652)" class="st1" cx="291.76" cy="184.74" rx="12.58" ry="12.58"/>
		
			<ellipse transform="matrix(0.9209 -0.3899 0.3899 0.9209 -38.0575 139.546)" class="st1" cx="324.74" cy="163.53" rx="12.88" ry="12.88"/>
		
			<ellipse transform="matrix(0.9209 -0.3899 0.3899 0.9209 -28.6132 151.8865)" class="st1" cx="359.87" cy="146.43" rx="13.19" ry="13.19"/>
		
			<ellipse transform="matrix(0.9209 -0.3899 0.3899 0.9209 -20.6929 165.2667)" class="st1" cx="396.79" cy="133.61" rx="13.49" ry="13.49"/>
		
			<ellipse transform="matrix(0.9209 -0.3899 0.3899 0.9209 -14.3857 179.5657)" class="st1" cx="435.17" cy="125.22" rx="13.8" ry="13.8"/>
		
			<ellipse transform="matrix(0.9209 -0.3899 0.3899 0.9209 -9.7817 194.6576)" class="st1" cx="474.65" cy="121.43" rx="14.1" ry="14.1"/>
		
			<ellipse transform="matrix(0.9209 -0.3899 0.3899 0.9209 -7.004 210.1064)" class="st1" cx="514.09" cy="122.31" rx="14.4" ry="14.4"/>
		
			<ellipse transform="matrix(0.9209 -0.3899 0.3899 0.9209 -6.0665 225.5936)" class="st1" cx="552.72" cy="127.74" rx="14.71" ry="14.71"/>
		
			<ellipse transform="matrix(0.9209 -0.3899 0.3899 0.9209 -6.9339 240.972)" class="st1" cx="590.17" cy="137.57" rx="15.01" ry="15.01"/>
		
			<ellipse transform="matrix(0.9209 -0.3899 0.3899 0.9209 -9.5708 256.0946)" class="st1" cx="626.1" cy="151.62" rx="15.32" ry="15.32"/>
		
			<ellipse transform="matrix(0.9209 -0.3899 0.3899 0.9209 -13.9419 270.8137)" class="st1" cx="660.18" cy="169.75" rx="15.62" ry="15.62"/>
		
			<ellipse transform="matrix(0.9209 -0.3899 0.3899 0.9209 -20.0119 284.9816)" class="st1" cx="692.05" cy="191.79" rx="15.93" ry="15.93"/>
		
			<ellipse transform="matrix(0.9209 -0.3899 0.3899 0.9209 -27.7454 298.4519)" class="st1" cx="721.36" cy="217.58" rx="16.23" ry="16.23"/>
	</g>
	<g>
		<circle class="st1" cx="688.97" cy="711.73" r="4.05"/>
		
			<ellipse transform="matrix(0.8957 -0.4447 0.4447 0.8957 -259.3861 370.5081)" class="st1" cx="660.07" cy="738.15" rx="4.36" ry="4.36"/>
		
			<ellipse transform="matrix(0.8957 -0.4447 0.4447 0.8957 -272.7977 358.8229)" class="st1" cx="628.46" cy="760.9" rx="4.66" ry="4.66"/>
		
			<ellipse transform="matrix(0.8957 -0.4447 0.4447 0.8957 -284.734 345.68)" class="st1" cx="594.47" cy="779.77" rx="4.97" ry="4.97"/>
		
			<ellipse transform="matrix(0.8957 -0.4447 0.4447 0.8957 -295.0686 331.2032)" class="st1" cx="558.45" cy="794.56" rx="5.27" ry="5.27"/>
		
			<ellipse transform="matrix(0.8957 -0.4447 0.4447 0.8957 -303.6796 315.5255)" class="st1" cx="520.72" cy="805.07" rx="5.57" ry="5.57"/>
		
			<ellipse transform="matrix(0.8957 -0.4447 0.4447 0.8957 -310.4406 298.7714)" class="st1" cx="481.63" cy="811.11" rx="5.88" ry="5.88"/>
		
			<ellipse transform="matrix(0.8957 -0.4447 0.4447 0.8957 -315.2286 281.0719)" class="st1" cx="441.51" cy="812.46" rx="6.18" ry="6.18"/>
		
			<ellipse transform="matrix(0.8957 -0.4447 0.4447 0.8957 -317.8627 262.9134)" class="st1" cx="401.48" cy="809" rx="6.49" ry="6.49"/>
		
			<ellipse transform="matrix(0.8957 -0.4447 0.4447 0.8957 -318.2827 244.8038)" class="st1" cx="362.67" cy="800.84" rx="6.79" ry="6.79"/>
		
			<ellipse transform="matrix(0.8957 -0.4447 0.4447 0.8957 -316.5422 226.9144)" class="st1" cx="325.41" cy="788.19" rx="7.09" ry="7.09"/>
		
			<ellipse transform="matrix(0.8957 -0.4447 0.4447 0.8957 -312.6943 209.4166)" class="st1" cx="290.04" cy="771.23" rx="7.4" ry="7.4"/>
		
			<ellipse transform="matrix(0.8957 -0.4447 0.4447 0.8957 -306.7908 192.4801)" class="st1" cx="256.89" cy="750.18" rx="7.7" ry="7.7"/>
		
			<ellipse transform="matrix(0.8957 -0.4447 0.4447 0.8957 -298.8858 176.2773)" class="st1" cx="226.3" cy="725.23" rx="8.01" ry="8.01"/>
		
			<ellipse transform="matrix(0.8957 -0.4447 0.4447 0.8957 -289.1291 161.11)" class="st1" cx="198.85" cy="696.85" rx="8.31" ry="8.31"/>
		
			<ellipse transform="matrix(0.8957 -0.4447 0.4447 0.8957 -277.746 147.2897)" class="st1" cx="175.08" cy="665.68" rx="8.61" ry="8.61"/>
		
			<ellipse transform="matrix(0.8957 -0.4447 0.4447 0.8957 -264.8634 134.9399)" class="st1" cx="155.2" cy="632.04" rx="8.92" ry="8.92"/>
		
			<ellipse transform="matrix(0.8957 -0.4447 0.4447 0.8957 -250.6098 124.185)" class="st1" cx="139.4" cy="596.28" rx="9.22" ry="9.22"/>
		
			<ellipse transform="matrix(0.8957 -0.4447 0.4447 0.8957 -235.1122 115.1481)" class="st1" cx="127.89" cy="558.73" rx="9.53" ry="9.53"/>
		
			<ellipse transform="matrix(0.8957 -0.4447 0.4447 0.8957 -218.4983 107.9532)" class="st1" cx="120.86" cy="519.72" rx="9.83" ry="9.83"/>
		
			<ellipse transform="matrix(0.8957 -0.4447 0.4447 0.8957 -200.8977 102.7241)" class="st1" cx="118.51" cy="479.59" rx="10.13" ry="10.13"/>
		
			<ellipse transform="matrix(0.8957 -0.4447 0.4447 0.8957 -182.849 99.6453)" class="st1" cx="120.98" cy="439.58" rx="10.44" ry="10.44"/>
		
			<ellipse transform="matrix(0.8957 -0.4447 0.4447 0.8957 -164.807 98.7569)" class="st1" cx="128.1" cy="400.67" rx="10.74" ry="10.74"/>
		
			<ellipse transform="matrix(0.8957 -0.4447 0.4447 0.8957 -146.943 100.0062)" class="st1" cx="139.7" cy="363.22" rx="11.05" ry="11.05"/>
		
			<ellipse transform="matrix(0.8957 -0.4447 0.4447 0.8957 -129.4271 103.3396)" class="st1" cx="155.56" cy="327.55" rx="11.35" ry="11.35"/>
		
			<ellipse transform="matrix(0.8957 -0.4447 0.4447 0.8957 -112.4306 108.7045)" class="st1" cx="175.49" cy="294" rx="11.66" ry="11.66"/>
		
			<ellipse transform="matrix(0.8957 -0.4447 0.4447 0.8957 -96.1237 116.0474)" class="st1" cx="199.3" cy="262.92" rx="11.96" ry="11.96"/>
		
			<ellipse transform="matrix(0.8957 -0.4447 0.4447 0.8957 -80.6773 125.3152)" class="st1" cx="226.78" cy="234.63" rx="12.26" ry="12.26"/>
		
			<ellipse transform="matrix(0.8957 -0.4447 0.4447 0.8957 -66.3905 136.3599)" class="st1" cx="257.46" cy="209.7" rx="12.57" ry="12.57"/>
		
			<ellipse transform="matrix(0.8957 -0.4447 0.4447 0.8957 -53.5777 148.9542)" class="st1" cx="290.72" cy="188.68" rx="12.87" ry="12.87"/>
		
			<ellipse transform="matrix(0.8957 -0.4447 0.4447 0.8957 -42.363 162.9698)" class="st1" cx="326.2" cy="171.78" rx="13.18" ry="13.18"/>
		
			<ellipse transform="matrix(0.8957 -0.4447 0.4447 0.8957 -32.8702 178.2787)" class="st1" cx="363.58" cy="159.2" rx="13.48" ry="13.48"/>
		
			<ellipse transform="matrix(0.8957 -0.4447 0.4447 0.8957 -25.2229 194.7528)" class="st1" cx="402.52" cy="151.14" rx="13.78" ry="13.78"/>
		
			<ellipse transform="matrix(0.8957 -0.4447 0.4447 0.8957 -19.5468 212.2563)" class="st1" cx="442.66" cy="147.79" rx="14.09" ry="14.09"/>
		
			<ellipse transform="matrix(0.8957 -0.4447 0.4447 0.8957 -16.0281 230.2093)" class="st1" cx="482.69" cy="149.27" rx="14.39" ry="14.39"/>
		
			<ellipse transform="matrix(0.8957 -0.4447 0.4447 0.8957 -14.6915 248.1967)" class="st1" cx="521.7" cy="155.41" rx="14.7" ry="14.7"/>
		
			<ellipse transform="matrix(0.8957 -0.4447 0.4447 0.8957 -15.4834 266.0467)" class="st1" cx="559.35" cy="166.03" rx="15" ry="15"/>
		
			<ellipse transform="matrix(0.8957 -0.4447 0.4447 0.8957 -18.3504 283.5875)" class="st1" cx="595.31" cy="180.91" rx="15.3" ry="15.3"/>
		
			<ellipse transform="matrix(0.8957 -0.4447 0.4447 0.8957 -23.239 300.6467)" class="st1" cx="629.23" cy="199.86" rx="15.61" ry="15.61"/>
		
			<ellipse transform="matrix(0.8957 -0.4447 0.4447 0.8957 -30.0958 317.0521)" class="st1" cx="660.77" cy="222.68" rx="15.91" ry="15.91"/>
		
			<ellipse transform="matrix(0.8957 -0.4447 0.4447 0.8957 -38.8672 332.6321)" class="st1" cx="689.59" cy="249.16" rx="16.22" ry="16.22"/>
	</g>
	<g>
		
			<ellipse transform="matrix(0.875 -0.4841 0.4841 0.875 -272.296 409.7259)" class="st1" cx="657.28" cy="732.16" rx="4.05" ry="4.05"/>
		
			<ellipse transform="matrix(0.875 -0.4841 0.4841 0.875 -288.9763 399.37)" class="st1" cx="628.89" cy="759.28" rx="4.35" ry="4.35"/>
		
			<ellipse transform="matrix(0.875 -0.4841 0.4841 0.875 -304.2783 387.1703)" class="st1" cx="597.61" cy="782.82" rx="4.66" ry="4.66"/>
		
			<ellipse transform="matrix(0.875 -0.4841 0.4841 0.875 -318.0454 373.2601)" class="st1" cx="563.79" cy="802.52" rx="4.96" ry="4.96"/>
		
			<ellipse transform="matrix(0.875 -0.4841 0.4841 0.875 -330.1171 357.7633)" class="st1" cx="527.75" cy="818.15" rx="5.27" ry="5.27"/>
		
			<ellipse transform="matrix(0.875 -0.4841 0.4841 0.875 -340.3371 340.8135)" class="st1" cx="489.81" cy="829.46" rx="5.57" ry="5.57"/>
		
			<ellipse transform="matrix(0.875 -0.4841 0.4841 0.875 -348.5456 322.5373)" class="st1" cx="450.32" cy="836.22" rx="5.87" ry="5.87"/>
		
			<ellipse transform="matrix(0.875 -0.4841 0.4841 0.875 -354.5856 303.0658)" class="st1" cx="409.59" cy="838.18" rx="6.18" ry="6.18"/>
		
			<ellipse transform="matrix(0.875 -0.4841 0.4841 0.875 -358.2143 282.9981)" class="st1" cx="368.91" cy="835.18" rx="6.48" ry="6.48"/>
		
			<ellipse transform="matrix(0.875 -0.4841 0.4841 0.875 -359.3466 262.9636)" class="st1" cx="329.55" cy="827.35" rx="6.78" ry="6.78"/>
		
			<ellipse transform="matrix(0.875 -0.4841 0.4841 0.875 -358.056 243.1525)" class="st1" cx="291.83" cy="814.95" rx="7.09" ry="7.09"/>
		
			<ellipse transform="matrix(0.875 -0.4841 0.4841 0.875 -354.417 223.7571)" class="st1" cx="256.09" cy="798.2" rx="7.39" ry="7.39"/>
		
			<ellipse transform="matrix(0.875 -0.4841 0.4841 0.875 -348.5011 204.9659)" class="st1" cx="222.66" cy="777.35" rx="7.7" ry="7.7"/>
		<ellipse transform="matrix(0.875 -0.4841 0.4841 0.875 -340.3829 186.9711)" class="st1" cx="191.88" cy="752.63" rx="8" ry="8"/>
		
			<ellipse transform="matrix(0.875 -0.4841 0.4841 0.875 -330.2044 170.0604)" class="st1" cx="164.22" cy="724.47" rx="8.3" ry="8.3"/>
		
			<ellipse transform="matrix(0.875 -0.4841 0.4841 0.875 -318.1625 154.5299)" class="st1" cx="140.16" cy="693.38" rx="8.61" ry="8.61"/>
		
			<ellipse transform="matrix(0.875 -0.4841 0.4841 0.875 -304.3849 140.5364)" class="st1" cx="119.95" cy="659.71" rx="8.91" ry="8.91"/>
		
			<ellipse transform="matrix(0.875 -0.4841 0.4841 0.875 -289.0014 128.2383)" class="st1" cx="103.83" cy="623.77" rx="9.21" ry="9.21"/>
		
			<ellipse transform="matrix(0.875 -0.4841 0.4841 0.875 -272.14 117.7926)" class="st1" cx="92.03" cy="585.89" rx="9.52" ry="9.52"/>
		
			<ellipse transform="matrix(0.875 -0.4841 0.4841 0.875 -253.9292 109.3564)" class="st1" cx="84.8" cy="546.41" rx="9.82" ry="9.82"/>
		
			<ellipse transform="matrix(0.875 -0.4841 0.4841 0.875 -234.5007 103.088)" class="st1" cx="82.38" cy="505.65" rx="10.13" ry="10.13"/>
		
			<ellipse transform="matrix(0.875 -0.4841 0.4841 0.875 -214.5208 99.2364)" class="st1" cx="84.91" cy="465.03" rx="10.43" ry="10.43"/>
		
			<ellipse transform="matrix(0.875 -0.4841 0.4841 0.875 -194.5508 97.859)" class="st1" cx="92.23" cy="425.67" rx="10.73" ry="10.73"/>
		
			<ellipse transform="matrix(0.875 -0.4841 0.4841 0.875 -174.7815 98.8826)" class="st1" cx="104.09" cy="387.9" rx="11.04" ry="11.04"/>
		
			<ellipse transform="matrix(0.875 -0.4841 0.4841 0.875 -155.403 102.2334)" class="st1" cx="120.27" cy="352.05" rx="11.34" ry="11.34"/>
		
			<ellipse transform="matrix(0.875 -0.4841 0.4841 0.875 -136.6062 107.8382)" class="st1" cx="140.52" cy="318.46" rx="11.64" ry="11.64"/>
		
			<ellipse transform="matrix(0.875 -0.4841 0.4841 0.875 -118.5813 115.6233)" class="st1" cx="164.61" cy="287.44" rx="11.95" ry="11.95"/>
		
			<ellipse transform="matrix(0.875 -0.4841 0.4841 0.875 -101.5188 125.5151)" class="st1" cx="192.3" cy="259.35" rx="12.25" ry="12.25"/>
		
			<ellipse transform="matrix(0.875 -0.4841 0.4841 0.875 -85.7044 137.3731)" class="st1" cx="223.17" cy="234.65" rx="12.56" ry="12.56"/>
		
			<ellipse transform="matrix(0.875 -0.4841 0.4841 0.875 -71.4362 150.9988)" class="st1" cx="256.69" cy="213.83" rx="12.86" ry="12.86"/>
		
			<ellipse transform="matrix(0.875 -0.4841 0.4841 0.875 -58.872 166.2632)" class="st1" cx="292.53" cy="197.14" rx="13.16" ry="13.16"/>
		
			<ellipse transform="matrix(0.875 -0.4841 0.4841 0.875 -48.1692 183.0376)" class="st1" cx="330.37" cy="184.8" rx="13.47" ry="13.47"/>
		
			<ellipse transform="matrix(0.875 -0.4841 0.4841 0.875 -39.4853 201.1928)" class="st1" cx="369.86" cy="177.06" rx="13.77" ry="13.77"/>
		
			<ellipse transform="matrix(0.875 -0.4841 0.4841 0.875 -32.9802 220.5895)" class="st1" cx="410.68" cy="174.16" rx="14.07" ry="14.07"/>
		
			<ellipse transform="matrix(0.875 -0.4841 0.4841 0.875 -28.9069 240.5074)" class="st1" cx="451.29" cy="176.23" rx="14.38" ry="14.38"/>
		
			<ellipse transform="matrix(0.875 -0.4841 0.4841 0.875 -27.3009 260.4379)" class="st1" cx="490.68" cy="183.09" rx="14.68" ry="14.68"/>
		
			<ellipse transform="matrix(0.875 -0.4841 0.4841 0.875 -28.0882 280.1888)" class="st1" cx="528.54" cy="194.49" rx="14.99" ry="14.99"/>
		
			<ellipse transform="matrix(0.875 -0.4841 0.4841 0.875 -31.1948 299.5685)" class="st1" cx="564.51" cy="210.19" rx="15.29" ry="15.29"/>
		
			<ellipse transform="matrix(0.875 -0.4841 0.4841 0.875 -36.5467 318.385)" class="st1" cx="598.27" cy="229.96" rx="15.59" ry="15.59"/>
		
			<ellipse transform="matrix(0.875 -0.4841 0.4841 0.875 -44.0699 336.4461)" class="st1" cx="629.49" cy="253.56" rx="15.9" ry="15.9"/>
		
			<ellipse transform="matrix(0.875 -0.4841 0.4841 0.875 -53.6904 353.5603)" class="st1" cx="657.82" cy="280.75" rx="16.2" ry="16.2"/>
	</g>
	<g>
		
			<ellipse transform="matrix(0.8581 -0.5135 0.5135 0.8581 -297.6901 428.0767)" class="st1" cx="625.59" cy="752.59" rx="4.05" ry="4.05"/>
		
			<ellipse transform="matrix(0.8581 -0.5135 0.5135 0.8581 -315.9373 417.7068)" class="st1" cx="597.7" cy="780.42" rx="4.35" ry="4.35"/>
		
			<ellipse transform="matrix(0.8581 -0.5135 0.5135 0.8581 -332.8178 405.2726)" class="st1" cx="566.77" cy="804.74" rx="4.65" ry="4.65"/>
		
			<ellipse transform="matrix(0.8581 -0.5135 0.5135 0.8581 -348.1414 390.9018)" class="st1" cx="533.11" cy="825.27" rx="4.96" ry="4.96"/>
		
			<ellipse transform="matrix(0.8581 -0.5135 0.5135 0.8581 -361.716 374.7185)" class="st1" cx="497.05" cy="841.74" rx="5.26" ry="5.26"/>
		
			<ellipse transform="matrix(0.8581 -0.5135 0.5135 0.8581 -373.3517 356.851)" class="st1" cx="458.9" cy="853.86" rx="5.56" ry="5.56"/>
		
			<ellipse transform="matrix(0.8581 -0.5135 0.5135 0.8581 -382.8566 337.4235)" class="st1" cx="419" cy="861.34" rx="5.87" ry="5.87"/>
		
			<ellipse transform="matrix(0.8581 -0.5135 0.5135 0.8581 -390.0401 316.5629)" class="st1" cx="377.67" cy="863.9" rx="6.17" ry="6.17"/>
		
			<ellipse transform="matrix(0.8581 -0.5135 0.5135 0.8581 -394.5963 294.9776)" class="st1" cx="336.35" cy="861.35" rx="6.47" ry="6.47"/>
		
			<ellipse transform="matrix(0.8581 -0.5135 0.5135 0.8581 -396.4148 273.4171)" class="st1" cx="296.43" cy="853.86" rx="6.78" ry="6.78"/>
		
			<ellipse transform="matrix(0.8581 -0.5135 0.5135 0.8581 -395.5916 252.0884)" class="st1" cx="258.26" cy="841.71" rx="7.08" ry="7.08"/>
		
			<ellipse transform="matrix(0.8581 -0.5135 0.5135 0.8581 -392.2227 231.1994)" class="st1" cx="222.15" cy="825.17" rx="7.38" ry="7.38"/>
		
			<ellipse transform="matrix(0.8581 -0.5135 0.5135 0.8581 -386.4021 210.9556)" class="st1" cx="188.44" cy="804.52" rx="7.69" ry="7.69"/>
		
			<ellipse transform="matrix(0.8581 -0.5135 0.5135 0.8581 -378.2267 191.5657)" class="st1" cx="157.45" cy="780.03" rx="7.99" ry="7.99"/>
		
			<ellipse transform="matrix(0.8581 -0.5135 0.5135 0.8581 -367.8278 173.2892)" class="st1" cx="129.58" cy="752.08" rx="8.3" ry="8.3"/>
		
			<ellipse transform="matrix(0.8581 -0.5135 0.5135 0.8581 -355.3658 156.3908)" class="st1" cx="105.24" cy="721.09" rx="8.6" ry="8.6"/>
		
			<ellipse transform="matrix(0.8581 -0.5135 0.5135 0.8581 -340.9648 141.0594)" class="st1" cx="84.71" cy="687.37" rx="8.9" ry="8.9"/>
		
			<ellipse transform="matrix(0.8581 -0.5135 0.5135 0.8581 -324.7514 127.4862)" class="st1" cx="68.26" cy="651.25" rx="9.21" ry="9.21"/>
		
			<ellipse transform="matrix(0.8581 -0.5135 0.5135 0.8581 -306.8503 115.8607)" class="st1" cx="56.18" cy="613.05" rx="9.51" ry="9.51"/>
		
			<ellipse transform="matrix(0.8581 -0.5135 0.5135 0.8581 -287.3873 106.3731)" class="st1" cx="48.75" cy="573.1" rx="9.81" ry="9.81"/>
		
			<ellipse transform="matrix(0.8581 -0.5135 0.5135 0.8581 -266.4907 99.214)" class="st1" cx="46.24" cy="531.72" rx="10.12" ry="10.12"/>
		
			<ellipse transform="matrix(0.8581 -0.5135 0.5135 0.8581 -244.9528 94.699)" class="st1" cx="48.84" cy="490.49" rx="10.42" ry="10.42"/>
		
			<ellipse transform="matrix(0.8581 -0.5135 0.5135 0.8581 -223.4387 92.9031)" class="st1" cx="56.35" cy="450.67" rx="10.72" ry="10.72"/>
		
			<ellipse transform="matrix(0.8581 -0.5135 0.5135 0.8581 -202.156 93.7308)" class="st1" cx="68.49" cy="412.59" rx="11.03" ry="11.03"/>
		
			<ellipse transform="matrix(0.8581 -0.5135 0.5135 0.8581 -181.3114 97.0863)" class="st1" cx="84.98" cy="376.55" rx="11.33" ry="11.33"/>
		
			<ellipse transform="matrix(0.8581 -0.5135 0.5135 0.8581 -161.1125 102.8741)" class="st1" cx="105.55" cy="342.91" rx="11.63" ry="11.63"/>
		
			<ellipse transform="matrix(0.8581 -0.5135 0.5135 0.8581 -141.7661 110.9985)" class="st1" cx="129.92" cy="311.97" rx="11.94" ry="11.94"/>
		
			<ellipse transform="matrix(0.8581 -0.5135 0.5135 0.8581 -123.4793 121.3638)" class="st1" cx="157.82" cy="284.07" rx="12.24" ry="12.24"/>
		
			<ellipse transform="matrix(0.8581 -0.5135 0.5135 0.8581 -106.5107 133.8395)" class="st1" cx="188.87" cy="259.61" rx="12.54" ry="12.54"/>
		
			<ellipse transform="matrix(0.8581 -0.5135 0.5135 0.8581 -91.1258 148.2644)" class="st1" cx="222.66" cy="238.99" rx="12.85" ry="12.85"/>
		
			<ellipse transform="matrix(0.8581 -0.5135 0.5135 0.8581 -77.5149 164.5129)" class="st1" cx="258.86" cy="222.49" rx="13.15" ry="13.15"/>
		
			<ellipse transform="matrix(0.8581 -0.5135 0.5135 0.8581 -65.868 182.4598)" class="st1" cx="297.15" cy="210.39" rx="13.45" ry="13.45"/>
		
			<ellipse transform="matrix(0.8581 -0.5135 0.5135 0.8581 -56.375 201.9794)" class="st1" cx="337.21" cy="202.98" rx="13.76" ry="13.76"/>
		
			<ellipse transform="matrix(0.8581 -0.5135 0.5135 0.8581 -49.2295 222.9333)" class="st1" cx="378.69" cy="200.53" rx="14.06" ry="14.06"/>
		
			<ellipse transform="matrix(0.8581 -0.5135 0.5135 0.8581 -44.7527 244.4629)" class="st1" cx="419.88" cy="203.19" rx="14.37" ry="14.37"/>
		
			<ellipse transform="matrix(0.8581 -0.5135 0.5135 0.8581 -42.991 265.9682)" class="st1" cx="459.67" cy="210.76" rx="14.67" ry="14.67"/>
		
			<ellipse transform="matrix(0.8581 -0.5135 0.5135 0.8581 -43.8484 287.2404)" class="st1" cx="497.72" cy="222.95" rx="14.97" ry="14.97"/>
		
			<ellipse transform="matrix(0.8581 -0.5135 0.5135 0.8581 -47.2283 308.0714)" class="st1" cx="533.72" cy="239.48" rx="15.28" ry="15.28"/>
		
			<ellipse transform="matrix(0.8581 -0.5135 0.5135 0.8581 -53.0345 328.2519)" class="st1" cx="567.32" cy="260.07" rx="15.58" ry="15.58"/>
		
			<ellipse transform="matrix(0.8581 -0.5135 0.5135 0.8581 -61.1708 347.5732)" class="st1" cx="598.21" cy="284.45" rx="15.88" ry="15.88"/>
		
			<ellipse transform="matrix(0.8581 -0.5135 0.5135 0.8581 -71.5407 365.8272)" class="st1" cx="626.05" cy="312.34" rx="16.19" ry="16.19"/>
	</g>
	<g>
		
			<ellipse transform="matrix(0.8441 -0.5362 0.5362 0.8441 -321.8973 438.9642)" class="st1" cx="593.9" cy="773.02" rx="4.04" ry="4.04"/>
		
			<ellipse transform="matrix(0.8441 -0.5362 0.5362 0.8441 -341.4618 428.7338)" class="st1" cx="566.52" cy="801.55" rx="4.35" ry="4.35"/>
		
			<ellipse transform="matrix(0.8441 -0.5362 0.5362 0.8441 -359.6956 416.2431)" class="st1" cx="535.93" cy="826.66" rx="4.65" ry="4.65"/>
		
			<ellipse transform="matrix(0.8441 -0.5362 0.5362 0.8441 -376.3766 401.6138)" class="st1" cx="502.43" cy="848.03" rx="4.95" ry="4.95"/>
		
			<ellipse transform="matrix(0.8441 -0.5362 0.5362 0.8441 -391.2802 384.9628)" class="st1" cx="466.35" cy="865.33" rx="5.26" ry="5.26"/>
		
			<ellipse transform="matrix(0.8441 -0.5362 0.5362 0.8441 -404.1856 366.4133)" class="st1" cx="427.99" cy="878.25" rx="5.56" ry="5.56"/>
		
			<ellipse transform="matrix(0.8441 -0.5362 0.5362 0.8441 -414.8683 346.0825)" class="st1" cx="387.69" cy="886.45" rx="5.86" ry="5.86"/>
		
			<ellipse transform="matrix(0.8441 -0.5362 0.5362 0.8441 -423.1057 324.0911)" class="st1" cx="345.76" cy="889.62" rx="6.17" ry="6.17"/>
		
			<ellipse transform="matrix(0.8441 -0.5362 0.5362 0.8441 -428.5287 301.255)" class="st1" cx="303.78" cy="887.53" rx="6.47" ry="6.47"/>
		
			<ellipse transform="matrix(0.8441 -0.5362 0.5362 0.8441 -431.0007 278.4419)" class="st1" cx="263.31" cy="880.37" rx="6.77" ry="6.77"/>
		
			<ellipse transform="matrix(0.8441 -0.5362 0.5362 0.8441 -430.6409 255.8728)" class="st1" cx="224.68" cy="868.47" rx="7.08" ry="7.08"/>
		
			<ellipse transform="matrix(0.8441 -0.5362 0.5362 0.8441 -427.5693 233.7702)" class="st1" cx="188.21" cy="852.14" rx="7.38" ry="7.38"/>
		
			<ellipse transform="matrix(0.8441 -0.5362 0.5362 0.8441 -421.903 212.354)" class="st1" cx="154.21" cy="831.69" rx="7.68" ry="7.68"/>
		
			<ellipse transform="matrix(0.8441 -0.5362 0.5362 0.8441 -413.7625 191.8472)" class="st1" cx="123.02" cy="807.43" rx="7.98" ry="7.98"/>
		
			<ellipse transform="matrix(0.8441 -0.5362 0.5362 0.8441 -403.2672 172.4716)" class="st1" cx="94.95" cy="779.7" rx="8.29" ry="8.29"/>
		
			<ellipse transform="matrix(0.8441 -0.5362 0.5362 0.8441 -390.5356 154.4487)" class="st1" cx="70.32" cy="748.79" rx="8.59" ry="8.59"/>
		
			<ellipse transform="matrix(0.8441 -0.5362 0.5362 0.8441 -375.6861 137.9994)" class="st1" cx="49.46" cy="715.03" rx="8.89" ry="8.89"/>
		
			<ellipse transform="matrix(0.8441 -0.5362 0.5362 0.8441 -358.8387 123.3463)" class="st1" cx="32.69" cy="678.74" rx="9.2" ry="9.2"/>
		
			<ellipse transform="matrix(0.8441 -0.5362 0.5362 0.8441 -340.1122 110.7108)" class="st1" cx="20.32" cy="640.22" rx="9.5" ry="9.5"/>
		
			<ellipse transform="matrix(0.8441 -0.5362 0.5362 0.8441 -319.6259 100.3147)" class="st1" cx="12.69" cy="599.79" rx="9.8" ry="9.8"/>
		
			<ellipse transform="matrix(0.8441 -0.5362 0.5362 0.8441 -297.5031 92.3808)" class="st1" cx="10.11" cy="557.78" rx="10.11" ry="10.11"/>
		
			<ellipse transform="matrix(0.8441 -0.5362 0.5362 0.8441 -274.6592 87.2916)" class="st1" cx="12.78" cy="515.95" rx="10.41" ry="10.41"/>
		
			<ellipse transform="matrix(0.8441 -0.5362 0.5362 0.8441 -251.8623 85.1399)" class="st1" cx="20.48" cy="475.67" rx="10.71" ry="10.71"/>
		
			<ellipse transform="matrix(0.8441 -0.5362 0.5362 0.8441 -229.3342 85.8067)" class="st1" cx="32.89" cy="437.27" rx="11.02" ry="11.02"/>
		
			<ellipse transform="matrix(0.8441 -0.5362 0.5362 0.8441 -207.2963 89.1728)" class="st1" cx="49.69" cy="401.06" rx="11.32" ry="11.32"/>
		
			<ellipse transform="matrix(0.8441 -0.5362 0.5362 0.8441 -185.9706 95.1192)" class="st1" cx="70.58" cy="367.36" rx="11.62" ry="11.62"/>
		
			<ellipse transform="matrix(0.8441 -0.5362 0.5362 0.8441 -165.5786 103.527)" class="st1" cx="95.24" cy="336.49" rx="11.93" ry="11.93"/>
		
			<ellipse transform="matrix(0.8441 -0.5362 0.5362 0.8441 -146.3421 114.2768)" class="st1" cx="123.34" cy="308.79" rx="12.23" ry="12.23"/>
		
			<ellipse transform="matrix(0.8441 -0.5362 0.5362 0.8441 -128.4827 127.2498)" class="st1" cx="154.58" cy="284.56" rx="12.53" ry="12.53"/>
		
			<ellipse transform="matrix(0.8441 -0.5362 0.5362 0.8441 -112.222 142.3268)" class="st1" cx="188.64" cy="264.14" rx="12.84" ry="12.84"/>
		
			<ellipse transform="matrix(0.8441 -0.5362 0.5362 0.8441 -97.7819 159.3887)" class="st1" cx="225.2" cy="247.84" rx="13.14" ry="13.14"/>
		
			<ellipse transform="matrix(0.8441 -0.5362 0.5362 0.8441 -85.384 178.3166)" class="st1" cx="263.94" cy="235.99" rx="13.44" ry="13.44"/>
		
			<ellipse transform="matrix(0.8441 -0.5362 0.5362 0.8441 -75.25 198.9913)" class="st1" cx="304.56" cy="228.9" rx="13.75" ry="13.75"/>
		
			<ellipse transform="matrix(0.8441 -0.5362 0.5362 0.8441 -67.606 221.2783)" class="st1" cx="346.71" cy="226.9" rx="14.05" ry="14.05"/>
		
			<ellipse transform="matrix(0.8441 -0.5362 0.5362 0.8441 -62.8424 244.1824)" class="st1" cx="388.48" cy="230.16" rx="14.35" ry="14.35"/>
		
			<ellipse transform="matrix(0.8441 -0.5362 0.5362 0.8441 -61.0166 267.014)" class="st1" cx="428.65" cy="238.43" rx="14.66" ry="14.66"/>
		
			<ellipse transform="matrix(0.8441 -0.5362 0.5362 0.8441 -62.0089 289.5496)" class="st1" cx="466.91" cy="251.41" rx="14.96" ry="14.96"/>
		
			<ellipse transform="matrix(0.8441 -0.5362 0.5362 0.8441 -65.6993 311.5663)" class="st1" cx="502.92" cy="268.76" rx="15.26" ry="15.26"/>
		
			<ellipse transform="matrix(0.8441 -0.5362 0.5362 0.8441 -71.9678 332.8405)" class="st1" cx="536.37" cy="290.18" rx="15.57" ry="15.57"/>
		
			<ellipse transform="matrix(0.8441 -0.5362 0.5362 0.8441 -80.6946 353.1487)" class="st1" cx="566.93" cy="315.34" rx="15.87" ry="15.87"/>
		
			<ellipse transform="matrix(0.8441 -0.5362 0.5362 0.8441 -91.7597 372.2682)" class="st1" cx="594.28" cy="343.92" rx="16.17" ry="16.17"/>
	</g>
</g>
</svg>
